<?xml version="1.0" encoding="iso-8859-1"?>
<!-- Generator: Adobe Illustrator 27.0.0, SVG Export Plug-In . SVG Version: 6.00 Build 0)  -->
<svg version="1.1" id="Layer_1" xmlns="http://www.w3.org/2000/svg" xmlns:xlink="http://www.w3.org/1999/xlink" x="0px" y="0px"
	 viewBox="0 0 500 500" style="enable-background:new 0 0 500 500;" xml:space="preserve">
<g id="watermark_1_">
	<g>
		<g id="watermark" style="opacity:0.61;">
			<g>
				<g>
					<g>
						<g>
							<polygon style="fill:#FFFFFF;" points="213.765,461.172 208.204,474.017 205.268,474.017 199.726,461.172 202.938,461.172 
								206.846,470.347 210.81,461.172 							"/>
						</g>
						<g>
							<path style="fill:#FFFFFF;" d="M223.507,469.741h-7.469c0.275,1.23,1.321,1.982,2.826,1.982c1.046,0,1.798-0.312,2.477-0.954
								l1.523,1.651c-0.917,1.046-2.294,1.597-4.074,1.597c-3.413,0-5.634-2.147-5.634-5.083c0-2.954,2.257-5.083,5.267-5.083
								c2.899,0,5.138,1.945,5.138,5.12C223.562,469.191,223.526,469.503,223.507,469.741 M216.002,468.071h4.863
								c-0.202-1.248-1.138-2.055-2.422-2.055C217.139,466.016,216.204,466.805,216.002,468.071"/>
						</g>
						<g>
							<path style="fill:#FFFFFF;" d="M224.735,468.934c0-2.973,2.294-5.083,5.505-5.083c2.074,0,3.707,0.899,4.423,2.514
								l-2.22,1.193c-0.532-0.936-1.321-1.358-2.221-1.358c-1.45,0-2.587,1.009-2.587,2.734c0,1.725,1.138,2.734,2.587,2.734
								c0.899,0,1.688-0.404,2.221-1.358l2.22,1.211c-0.716,1.578-2.349,2.495-4.423,2.495
								C227.029,474.017,224.735,471.907,224.735,468.934"/>
						</g>
						<g>
							<path style="fill:#FFFFFF;" d="M242.828,473.393c-0.587,0.422-1.45,0.624-2.331,0.624c-2.33,0-3.688-1.193-3.688-3.542
								v-4.055h-1.523v-2.202h1.523v-2.404h2.863v2.404h2.459v2.202h-2.459v4.019c0,0.844,0.458,1.303,1.229,1.303
								c0.422,0,0.844-0.128,1.156-0.367L242.828,473.393z"/>
						</g>
					</g>
					<g>
						<path style="fill:#FFFFFF;" d="M262.474,463.997v2.643c-0.238-0.018-0.422-0.037-0.642-0.037
							c-1.578,0-2.624,0.862-2.624,2.753v4.661h-2.863v-9.873h2.734v1.303C259.776,464.493,260.951,463.997,262.474,463.997"/>
					</g>
					<g>
						<path style="fill:#FFFFFF;" d="M263.299,472.53l1.009-2.239c1.083,0.789,2.697,1.339,4.239,1.339
							c1.762,0,2.477-0.587,2.477-1.376c0-2.404-7.469-0.752-7.469-5.524c0-2.184,1.762-4,5.413-4c1.615,0,3.267,0.385,4.459,1.138
							l-0.918,2.257c-1.193-0.679-2.422-1.009-3.56-1.009c-1.761,0-2.44,0.66-2.44,1.468c0,2.367,7.468,0.734,7.468,5.45
							c0,2.147-1.78,3.982-5.45,3.982C266.492,474.017,264.437,473.411,263.299,472.53"/>
					</g>
					<g>
						<path style="fill:#FFFFFF;" d="M285.428,469.741h-7.469c0.275,1.23,1.321,1.982,2.826,1.982c1.046,0,1.798-0.312,2.477-0.954
							l1.523,1.651c-0.918,1.046-2.294,1.597-4.074,1.597c-3.413,0-5.634-2.147-5.634-5.083c0-2.954,2.257-5.083,5.267-5.083
							c2.9,0,5.138,1.945,5.138,5.12C285.484,469.191,285.447,469.503,285.428,469.741 M277.923,468.071h4.863
							c-0.202-1.248-1.138-2.055-2.422-2.055C279.061,466.016,278.125,466.805,277.923,468.071"/>
					</g>
					<g>
						<path style="fill:#FFFFFF;" d="M297.007,469.741h-7.469c0.275,1.23,1.321,1.982,2.826,1.982c1.046,0,1.798-0.312,2.477-0.954
							l1.523,1.651c-0.918,1.046-2.294,1.597-4.074,1.597c-3.413,0-5.634-2.147-5.634-5.083c0-2.954,2.257-5.083,5.267-5.083
							c2.899,0,5.138,1.945,5.138,5.12C297.062,469.191,297.025,469.503,297.007,469.741 M289.501,468.071h4.863
							c-0.202-1.248-1.138-2.055-2.422-2.055C290.639,466.016,289.703,466.805,289.501,468.071"/>
					</g>
					<g>
						<polygon style="fill:#FFFFFF;" points="303.208,470.145 301.831,471.503 301.831,474.017 298.969,474.017 298.969,460.401 
							301.831,460.401 301.831,468.108 306.016,464.144 309.429,464.144 305.318,468.328 309.796,474.017 306.327,474.017 						"/>
					</g>
					<g>
						<path style="fill:#FFFFFF;" d="M256.601,475.359L256.601,475.359l-2.86-2.86c-0.435,0.508-0.953,0.943-1.534,1.284
							c-0.092,0.069-0.186,0.136-0.283,0.199l3.027,3.027c0.456,0.456,1.195,0.456,1.65,0
							C257.057,476.554,257.057,475.815,256.601,475.359"/>
					</g>
					<g>
						<path style="fill:#FFFFFF;" d="M249.984,463.244c0.221-0.173,0.495-0.281,0.797-0.281c0.042,0,0.083,0.002,0.124,0.006
							c-0.214-0.156-0.478-0.249-0.764-0.249c-0.395,0-0.744,0.18-0.981,0.458c-0.051,0-0.1,0.006-0.151,0.008
							c0.039-0.077,0.064-0.162,0.064-0.255c0-0.234-0.143-0.434-0.346-0.519c0.087,0.126,0.138,0.279,0.138,0.445
							c0,0.122-0.031,0.237-0.081,0.341c-2.811,0.201-5.03,2.539-5.03,5.4c0,2.993,2.426,5.42,5.42,5.42
							c2.993,0,5.42-2.426,5.42-5.42C254.595,465.879,252.593,463.635,249.984,463.244 M247.983,464.656
							c0.435,0,0.844,0.112,1.199,0.309c0.374-0.245,0.82-0.387,1.299-0.387c0.711,0,1.348,0.312,1.784,0.806
							c-0.435-0.379-1.004-0.61-1.627-0.61c-0.449,0-0.87,0.12-1.234,0.329c-0.079,0.046-0.156,0.096-0.229,0.15
							c-0.065-0.048-0.133-0.093-0.204-0.134c-0.369-0.219-0.8-0.344-1.26-0.344c-0.3,0-0.588,0.054-0.854,0.152
							C247.196,464.754,247.578,464.656,247.983,464.656 M251.772,469.098c0.115,0.305,0.181,0.634,0.181,0.979
							c0,1.534-1.244,2.777-2.778,2.777c-1.534,0-2.777-1.243-2.777-2.777c0-0.345,0.066-0.674,0.181-0.979
							c-0.62-0.382-1.035-1.064-1.035-1.846c0-1.197,0.971-2.168,2.168-2.168c0.565,0,1.078,0.218,1.463,0.572
							c0.386-0.354,0.899-0.572,1.464-0.572c1.197,0,2.168,0.971,2.168,2.168C252.807,468.034,252.392,468.716,251.772,469.098"/>
					</g>
					<g>
						<path style="fill:#FFFFFF;" d="M251.666,467.061c0,0.497-0.404,0.901-0.901,0.901c-0.497,0-0.901-0.404-0.901-0.901
							s0.404-0.901,0.901-0.901c0.101,0,0.197,0.017,0.287,0.047c-0.03,0.062-0.045,0.132-0.045,0.204
							c0,0.273,0.221,0.494,0.494,0.494c0.05,0,0.099-0.008,0.146-0.022C251.66,466.941,251.666,467,251.666,467.061"/>
					</g>
					<g>
						<path style="fill:#FFFFFF;" d="M248.255,467.061c0,0.376-0.305,0.681-0.681,0.681c-0.376,0-0.681-0.305-0.681-0.681
							s0.305-0.681,0.681-0.681c0.076,0,0.149,0.013,0.217,0.035c-0.023,0.047-0.034,0.1-0.034,0.155
							c0,0.206,0.167,0.374,0.374,0.374c0.038,0,0.075-0.006,0.11-0.017C248.25,466.97,248.255,467.015,248.255,467.061"/>
					</g>
					<g>
						<g>
							<g>
								<rect x="242.908" y="467.83" style="fill:#FFFFFF;" width="0.616" height="0.616"/>
							</g>
							<g>
								<rect x="254.827" y="467.83" style="fill:#FFFFFF;" width="0.616" height="0.616"/>
							</g>
							<g>
								<path style="fill:#FFFFFF;" d="M255.205,468.082h-0.14c0-3.248-2.642-5.89-5.89-5.89c-3.248,0-5.89,2.642-5.89,5.89h-0.14
									c0-1.611,0.627-3.125,1.766-4.264c1.139-1.139,2.653-1.766,4.264-1.766c1.611,0,3.125,0.627,4.264,1.766
									C254.578,464.957,255.205,466.471,255.205,468.082"/>
							</g>
						</g>
						<g>
							<rect x="248.868" y="461.814" style="fill:#FFFFFF;" width="0.616" height="0.616"/>
						</g>
						<g>
							<rect x="244.95" y="462.052" style="fill:#FFFFFF;" width="8.45" height="0.14"/>
						</g>
						<g>
							<path style="fill:#FFFFFF;" d="M245.174,462.15c0,0.108-0.088,0.196-0.196,0.196c-0.108,0-0.196-0.088-0.196-0.196
								c0-0.108,0.088-0.196,0.196-0.196C245.086,461.954,245.174,462.042,245.174,462.15"/>
						</g>
						<g>
							<path style="fill:#FFFFFF;" d="M253.596,462.15c0,0.108-0.088,0.196-0.196,0.196c-0.108,0-0.196-0.088-0.196-0.196
								c0-0.108,0.088-0.196,0.196-0.196C253.509,461.954,253.596,462.042,253.596,462.15"/>
						</g>
					</g>
				</g>
				<g>
					<path style="fill:#FFFFFF;" d="M314.356,473.409c0,1.559-2.364,1.559-2.364,0C311.993,471.851,314.356,471.851,314.356,473.409
						z"/>
				</g>
				<g>
					<g>
						<g>
							<path style="fill:#FFFFFF;" d="M161.739,466.549l1.772,6.088l1.855-6.088h2.215l-2.823,8.14h-2.33l-0.837-2.396l-0.722-2.708
								l-0.722,2.708l-0.837,2.396h-2.33l-2.839-8.14h2.231l1.855,6.088l1.756-6.088H161.739z"/>
						</g>
						<g>
							<path style="fill:#FFFFFF;" d="M176.713,466.549l1.772,6.088l1.855-6.088h2.215l-2.823,8.14h-2.33l-0.837-2.396l-0.722-2.708
								l-0.722,2.708l-0.837,2.396h-2.33l-2.839-8.14h2.231l1.855,6.088l1.756-6.088H176.713z"/>
						</g>
						<g>
							<path style="fill:#FFFFFF;" d="M191.687,466.549l1.772,6.088l1.855-6.088h2.215l-2.823,8.14h-2.33l-0.837-2.396l-0.722-2.708
								l-0.722,2.708l-0.837,2.396h-2.33l-2.839-8.14h2.231l1.855,6.088l1.756-6.088H191.687z"/>
						</g>
					</g>
					<g>
						<path style="fill:#FFFFFF;" d="M200.908,473.52c0,1.559-2.364,1.559-2.364,0C198.545,471.962,200.908,471.962,200.908,473.52z
							"/>
					</g>
					<g>
						<path style="fill:#FFFFFF;" d="M322.71,473.409c-0.935,0.919-1.919,1.28-3.117,1.28c-2.346,0-4.3-1.411-4.3-4.282
							s1.953-4.284,4.3-4.284c1.149,0,2.035,0.329,2.921,1.199l-1.264,1.329c-0.476-0.428-1.066-0.64-1.623-0.64
							c-1.346,0-2.33,0.985-2.33,2.396c0,1.542,1.05,2.362,2.297,2.362c0.64,0,1.28-0.18,1.772-0.672L322.71,473.409z"/>
					</g>
					<g>
						<path style="fill:#FFFFFF;" d="M331.805,470.472c0,2.33-1.591,4.217-4.217,4.217c-2.626,0-4.201-1.887-4.201-4.217
							c0-2.314,1.609-4.217,4.185-4.217C330.149,466.255,331.805,468.158,331.805,470.472z M325.389,470.472
							c0,1.231,0.739,2.38,2.199,2.38c1.46,0,2.199-1.149,2.199-2.38c0-1.215-0.854-2.396-2.199-2.396
							C326.144,468.077,325.389,469.258,325.389,470.472z"/>
					</g>
					<g>
						<path style="fill:#FFFFFF;" d="M338.572,474.689v-4.332c0-1.068-0.559-2.035-1.658-2.035c-1.082,0-1.722,0.967-1.722,2.035
							v4.332h-2.003v-8.107h1.855l0.148,0.985c0.426-0.82,1.362-1.116,2.133-1.116c0.969,0,1.937,0.394,2.396,1.51
							c0.723-1.149,1.658-1.478,2.708-1.478c2.297,0,3.43,1.412,3.43,3.84v4.365h-2.003v-4.365c0-1.066-0.442-1.97-1.526-1.97
							c-1.082,0-1.756,0.935-1.756,2.003v4.332H338.572z"/>
					</g>
				</g>
			</g>
		</g>
		<g style="opacity:0.61;">
			<g>
				<g>
					<path style="fill:#FFFFFF;" d="M345.988,431.299c-0.006-1.224-0.959-2.121-2.189-2.14c-0.924-0.014-0.832,0.12-0.834-0.867
						c-0.003-1.097-0.007-2.194,0.003-3.292c0.003-0.379-0.112-0.691-0.362-0.976c-2.342-2.668-4.678-5.342-7.019-8.011
						c-0.12-0.137-0.275-0.244-0.414-0.366c-6.214,0-12.427,0-18.641,0c-0.794,0.293-1.14,0.868-1.138,1.709
						c0.01,3.748,0.004,7.496,0.004,11.243c0,0.556-0.003,0.589-0.55,0.551c-1.497-0.102-2.516,0.986-2.497,2.492
						c0.044,3.476,0.013,6.953,0.014,10.429c0.001,1.58,0.867,2.443,2.45,2.449c0.582,0.002,0.582,0.002,0.582,0.6
						c0,2.219-0.001,4.438,0.001,6.657c0.001,1.192,0.58,1.771,1.768,1.771c8.013,0.001,16.027,0.001,24.04,0
						c1.168,0,1.755-0.583,1.757-1.745c0.002-2.256,0-4.512,0.001-6.768c0-0.512,0.002-0.511,0.52-0.515
						c0.271-0.002,0.541,0.008,0.809-0.058c0.996-0.246,1.69-1.044,1.694-2.069C346.003,438.696,346.005,434.997,345.988,431.299z
						 M317.537,417.162c5.337,0,10.674,0,16.01,0c0.548,0,0.554,0.007,0.554,0.561c0.001,2.243-0.001,4.486,0.001,6.73
						c0.001,0.811,0.249,1.059,1.06,1.059c1.91,0.001,3.821,0,5.731,0.001c0.458,0,0.479,0.021,0.481,0.483
						c0.003,0.887,0.002,1.775,0,2.662c-0.001,0.477-0.024,0.498-0.504,0.499c-3.895,0.001-7.79,0-11.684,0
						c-3.882,0-7.765,0-11.647,0c-0.55,0-0.552-0.001-0.552-0.561c-0.001-3.624-0.001-7.247,0-10.871
						C316.987,417.166,316.991,417.162,317.537,417.162z M340.822,451.579c-3.883,0.001-7.766,0-11.65,0c-3.871,0-7.742,0-11.613,0
						c-0.572,0-0.574-0.002-0.574-0.579c-0.001-1.997-0.001-3.994,0.001-5.991c0-0.464,0.023-0.486,0.478-0.487
						c7.803-0.001,15.607-0.001,23.41,0c0.478,0,0.499,0.02,0.499,0.503c0.002,1.997,0.001,3.994,0,5.991
						C341.375,451.574,341.37,451.579,340.822,451.579z"/>
				</g>
				<g>
					<g>
						<rect x="327.418" y="417.053" style="fill:#FFFFFF;" width="1.757" height="1.054"/>
					</g>
					<g>
						<rect x="325.662" y="418.107" style="fill:#FFFFFF;" width="1.757" height="1.054"/>
					</g>
					<g>
						<rect x="327.418" y="419.161" style="fill:#FFFFFF;" width="1.757" height="1.054"/>
					</g>
					<g>
						<rect x="325.662" y="420.215" style="fill:#FFFFFF;" width="1.757" height="1.054"/>
					</g>
					<g>
						<rect x="327.418" y="421.269" style="fill:#FFFFFF;" width="1.757" height="1.054"/>
					</g>
					<g>
						<rect x="325.662" y="422.323" style="fill:#FFFFFF;" width="1.757" height="1.054"/>
					</g>
					<g>
						<rect x="327.418" y="423.378" style="fill:#FFFFFF;" width="1.757" height="1.054"/>
					</g>
					<g>
						<rect x="325.662" y="424.432" style="fill:#FFFFFF;" width="1.757" height="1.054"/>
					</g>
					<g>
						<rect x="327.418" y="425.486" style="fill:#FFFFFF;" width="1.757" height="1.054"/>
					</g>
					<g>
						<rect x="325.662" y="426.54" style="fill:#FFFFFF;" width="1.757" height="1.054"/>
					</g>
					<g>
						<rect x="327.418" y="427.594" style="fill:#FFFFFF;" width="1.757" height="1.054"/>
					</g>
					<g>
						<rect x="325.662" y="428.648" style="fill:#FFFFFF;" width="1.757" height="1.054"/>
					</g>
				</g>
			</g>
			<g>
				<path style="fill:#FFFFFF;" d="M187.637,431.299c-0.006-1.224-0.959-2.121-2.189-2.14c-0.924-0.014-0.832,0.12-0.834-0.867
					c-0.003-1.097-0.007-2.194,0.003-3.292c0.003-0.379-0.112-0.691-0.362-0.976c-2.342-2.668-4.678-5.342-7.019-8.011
					c-0.12-0.137-0.275-0.244-0.414-0.366c-6.214,0-12.427,0-18.641,0c-0.794,0.293-1.14,0.868-1.138,1.709
					c0.01,3.748,0.004,7.496,0.004,11.243c0,0.556-0.003,0.589-0.55,0.551c-1.497-0.102-2.516,0.986-2.497,2.492
					c0.044,3.476,0.013,6.953,0.014,10.429c0.001,1.58,0.867,2.443,2.45,2.449c0.582,0.002,0.582,0.002,0.582,0.6
					c0,2.219-0.001,4.438,0.001,6.657c0.001,1.192,0.58,1.771,1.768,1.771c8.013,0.001,16.027,0.001,24.04,0
					c1.168,0,1.755-0.583,1.757-1.745c0.002-2.256,0-4.512,0.001-6.768c0-0.512,0.002-0.511,0.52-0.515
					c0.271-0.002,0.541,0.008,0.809-0.058c0.996-0.246,1.69-1.044,1.694-2.069C187.652,438.696,187.655,434.997,187.637,431.299z
					 M159.187,417.162c5.337,0,10.674,0,16.01,0c0.548,0,0.554,0.007,0.554,0.561c0.001,2.243-0.001,4.486,0.001,6.73
					c0.001,0.811,0.249,1.059,1.06,1.059c1.91,0.001,3.821,0,5.731,0.001c0.458,0,0.479,0.021,0.481,0.483
					c0.003,0.887,0.002,1.775,0,2.662c-0.001,0.477-0.024,0.498-0.504,0.499c-3.895,0.001-7.79,0-11.684,0
					c-3.882,0-7.765,0-11.647,0c-0.55,0-0.552-0.001-0.552-0.561c-0.001-3.624-0.001-7.247,0-10.871
					C158.636,417.166,158.64,417.162,159.187,417.162z M182.472,451.579c-3.883,0.001-7.766,0-11.65,0c-3.871,0-7.742,0-11.613,0
					c-0.572,0-0.574-0.002-0.574-0.579c-0.001-1.997-0.001-3.994,0.001-5.991c0-0.464,0.023-0.486,0.478-0.487
					c7.803-0.001,15.607-0.001,23.41,0c0.478,0,0.499,0.02,0.499,0.503c0.002,1.997,0.001,3.994,0,5.991
					C183.024,451.574,183.019,451.579,182.472,451.579z"/>
			</g>
			<g>
				<path style="fill:#FFFFFF;" d="M159.779,440.669v-7.897h2.779c0.375,0,0.726,0.061,1.053,0.182
					c0.327,0.121,0.612,0.292,0.855,0.513c0.242,0.221,0.434,0.483,0.573,0.789c0.14,0.305,0.21,0.642,0.21,1.009
					c0,0.375-0.07,0.715-0.21,1.02c-0.14,0.305-0.331,0.568-0.573,0.789c-0.243,0.221-0.528,0.392-0.855,0.513
					c-0.327,0.121-0.678,0.182-1.053,0.182h-1.29v2.901H159.779z M162.58,436.356c0.39,0,0.684-0.111,0.882-0.331
					c0.199-0.22,0.298-0.474,0.298-0.761c0-0.14-0.024-0.276-0.072-0.408c-0.048-0.132-0.121-0.248-0.221-0.347
					c-0.099-0.099-0.223-0.178-0.37-0.237c-0.147-0.059-0.32-0.089-0.518-0.089h-1.312v2.173H162.58z"/>
				<path style="fill:#FFFFFF;" d="M166.308,432.771h1.731l3.177,5.294h0.088l-0.088-1.522v-3.772h1.478v7.897h-1.566l-3.353-5.592
					h-0.088l0.088,1.522v4.07h-1.467V432.771z"/>
				<path style="fill:#FFFFFF;" d="M177.922,436.334h3.872c0.022,0.089,0.04,0.195,0.055,0.32c0.014,0.125,0.022,0.25,0.022,0.375
					c0,0.507-0.077,0.985-0.231,1.434c-0.154,0.449-0.397,0.849-0.728,1.202c-0.353,0.375-0.776,0.666-1.268,0.871
					c-0.493,0.206-1.055,0.309-1.688,0.309c-0.574,0-1.114-0.103-1.622-0.309c-0.507-0.206-0.948-0.492-1.323-0.86
					c-0.375-0.367-0.673-0.803-0.894-1.307c-0.221-0.504-0.331-1.053-0.331-1.649c0-0.595,0.11-1.145,0.331-1.649
					c0.221-0.504,0.518-0.939,0.894-1.307c0.375-0.367,0.816-0.654,1.323-0.86c0.507-0.206,1.048-0.309,1.622-0.309
					c0.64,0,1.211,0.11,1.715,0.331c0.504,0.221,0.935,0.526,1.296,0.915l-1.025,1.004c-0.258-0.272-0.544-0.48-0.861-0.623
					c-0.316-0.143-0.695-0.215-1.136-0.215c-0.361,0-0.703,0.065-1.026,0.193c-0.324,0.129-0.607,0.311-0.85,0.546
					c-0.242,0.235-0.436,0.52-0.579,0.855c-0.143,0.335-0.215,0.708-0.215,1.119c0,0.412,0.072,0.785,0.215,1.12
					c0.143,0.335,0.338,0.62,0.584,0.855c0.246,0.235,0.531,0.418,0.855,0.546c0.323,0.129,0.669,0.193,1.037,0.193
					c0.419,0,0.773-0.061,1.064-0.182c0.29-0.121,0.538-0.278,0.744-0.469c0.148-0.132,0.275-0.3,0.381-0.502
					c0.106-0.202,0.189-0.428,0.248-0.678h-2.482V436.334z"/>
			</g>
			<g>
				<path style="fill:#FFFFFF;" d="M224.019,431.299c-0.006-1.224-0.959-2.121-2.189-2.14c-0.924-0.014-0.832,0.12-0.834-0.867
					c-0.003-1.097-0.007-2.194,0.003-3.292c0.003-0.379-0.112-0.691-0.362-0.976c-2.342-2.668-4.678-5.342-7.019-8.011
					c-0.12-0.137-0.275-0.244-0.414-0.366c-6.214,0-12.427,0-18.641,0c-0.794,0.293-1.14,0.868-1.138,1.709
					c0.01,3.748,0.004,7.496,0.004,11.243c0,0.556-0.003,0.589-0.55,0.551c-1.497-0.102-2.516,0.986-2.497,2.492
					c0.044,3.476,0.013,6.953,0.014,10.429c0.001,1.58,0.867,2.443,2.45,2.449c0.582,0.002,0.582,0.002,0.582,0.6
					c0,2.219-0.001,4.438,0.001,6.657c0.001,1.192,0.58,1.771,1.768,1.771c8.013,0.001,16.027,0.001,24.04,0
					c1.168,0,1.755-0.583,1.757-1.745c0.002-2.256,0-4.512,0.001-6.768c0-0.512,0.002-0.511,0.52-0.515
					c0.271-0.002,0.541,0.008,0.809-0.058c0.997-0.246,1.69-1.044,1.694-2.069C224.034,438.696,224.036,434.997,224.019,431.299z
					 M195.568,417.162c5.337,0,10.674,0,16.01,0c0.548,0,0.554,0.007,0.554,0.561c0.001,2.243-0.001,4.486,0.001,6.73
					c0.001,0.811,0.249,1.059,1.06,1.059c1.91,0.001,3.821,0,5.731,0.001c0.458,0,0.479,0.021,0.481,0.483
					c0.003,0.887,0.002,1.775,0,2.662c-0.001,0.477-0.024,0.498-0.504,0.499c-3.895,0.001-7.79,0-11.684,0
					c-3.882,0-7.765,0-11.647,0c-0.55,0-0.552-0.001-0.552-0.561c-0.001-3.624-0.001-7.247,0-10.871
					C195.018,417.166,195.022,417.162,195.568,417.162z M218.854,451.579c-3.883,0.001-7.766,0-11.65,0c-3.871,0-7.742,0-11.613,0
					c-0.572,0-0.574-0.002-0.574-0.579c-0.001-1.997-0.001-3.994,0.001-5.991c0-0.464,0.023-0.486,0.478-0.487
					c7.803-0.001,15.607-0.001,23.41,0c0.478,0,0.499,0.02,0.499,0.503c0.002,1.997,0.001,3.994,0,5.991
					C219.406,451.574,219.401,451.579,218.854,451.579z"/>
			</g>
			<g>
				<path style="fill:#FFFFFF;" d="M205.111,432.771h1.699l2.967,7.897h-1.644l-0.651-1.886h-3.044l-0.651,1.886h-1.643
					L205.111,432.771z M206.997,437.415l-0.706-1.974l-0.287-0.96h-0.088l-0.287,0.96l-0.706,1.974H206.997z"/>
				<path style="fill:#FFFFFF;" d="M211.331,434.536c-0.125,0-0.245-0.024-0.359-0.072c-0.114-0.048-0.213-0.114-0.298-0.199
					c-0.084-0.084-0.151-0.182-0.198-0.292c-0.048-0.11-0.072-0.232-0.072-0.364s0.024-0.254,0.072-0.364
					c0.048-0.11,0.114-0.208,0.198-0.292c0.084-0.084,0.184-0.151,0.298-0.198c0.114-0.048,0.233-0.072,0.359-0.072
					c0.257,0,0.478,0.09,0.662,0.27c0.184,0.181,0.276,0.399,0.276,0.656s-0.092,0.476-0.276,0.656
					C211.809,434.446,211.589,434.536,211.331,434.536z M210.615,440.669v-5.404h1.445v5.404H210.615z"/>
			</g>
			<g>
				<path style="fill:#FFFFFF;" d="M261.044,431.299c-0.006-1.224-0.959-2.121-2.189-2.14c-0.924-0.014-0.832,0.12-0.834-0.867
					c-0.003-1.097-0.007-2.194,0.003-3.292c0.003-0.379-0.112-0.691-0.362-0.976c-2.342-2.668-4.678-5.342-7.019-8.011
					c-0.12-0.137-0.275-0.244-0.414-0.366c-6.214,0-12.427,0-18.641,0c-0.794,0.293-1.14,0.868-1.138,1.709
					c0.01,3.748,0.004,7.496,0.004,11.243c0,0.556-0.003,0.589-0.55,0.551c-1.497-0.102-2.516,0.986-2.497,2.492
					c0.044,3.476,0.013,6.953,0.014,10.429c0.001,1.58,0.867,2.443,2.45,2.449c0.582,0.002,0.582,0.002,0.582,0.6
					c0,2.219-0.001,4.438,0.001,6.657c0.001,1.192,0.58,1.771,1.768,1.771c8.013,0.001,16.027,0.001,24.04,0
					c1.168,0,1.755-0.583,1.757-1.745c0.002-2.256,0-4.512,0.001-6.768c0-0.512,0.002-0.511,0.52-0.515
					c0.271-0.002,0.541,0.008,0.809-0.058c0.996-0.246,1.69-1.044,1.694-2.069C261.059,438.696,261.061,434.997,261.044,431.299z
					 M232.593,417.162c5.337,0,10.674,0,16.01,0c0.548,0,0.554,0.007,0.554,0.561c0.001,2.243-0.001,4.486,0.001,6.73
					c0.001,0.811,0.249,1.059,1.06,1.059c1.91,0.001,3.821,0,5.731,0.001c0.458,0,0.479,0.021,0.481,0.483
					c0.003,0.887,0.002,1.775,0,2.662c-0.001,0.477-0.024,0.498-0.504,0.499c-3.895,0.001-7.79,0-11.684,0
					c-3.882,0-7.765,0-11.647,0c-0.55,0-0.552-0.001-0.552-0.561c-0.001-3.624-0.001-7.247,0-10.871
					C232.042,417.166,232.047,417.162,232.593,417.162z M255.878,451.579c-3.883,0.001-7.766,0-11.65,0c-3.871,0-7.742,0-11.613,0
					c-0.572,0-0.574-0.002-0.574-0.579c-0.001-1.997-0.001-3.994,0.001-5.991c0-0.464,0.023-0.486,0.478-0.487
					c7.803-0.001,15.607-0.001,23.41,0c0.478,0,0.499,0.02,0.499,0.503c0.002,1.997,0.001,3.994,0,5.991
					C256.431,451.574,256.426,451.579,255.878,451.579z"/>
			</g>
			<g>
				<path style="fill:#FFFFFF;" d="M236.361,440.845c-0.338,0-0.662-0.048-0.971-0.143c-0.309-0.095-0.592-0.239-0.849-0.43
					c-0.257-0.191-0.481-0.425-0.673-0.7c-0.191-0.276-0.342-0.597-0.452-0.965l1.401-0.551c0.103,0.397,0.283,0.726,0.54,0.987
					c0.257,0.261,0.596,0.392,1.015,0.392c0.154,0,0.303-0.02,0.447-0.061c0.143-0.04,0.272-0.099,0.386-0.176
					s0.204-0.175,0.27-0.292c0.066-0.118,0.099-0.254,0.099-0.408c0-0.147-0.026-0.279-0.077-0.397
					c-0.051-0.117-0.138-0.227-0.259-0.331c-0.121-0.103-0.28-0.202-0.475-0.298c-0.195-0.095-0.435-0.195-0.722-0.298l-0.485-0.176
					c-0.213-0.073-0.429-0.173-0.645-0.298c-0.217-0.125-0.413-0.276-0.59-0.452c-0.177-0.176-0.322-0.384-0.436-0.623
					c-0.114-0.239-0.171-0.509-0.171-0.81c0-0.309,0.06-0.597,0.182-0.866c0.121-0.268,0.294-0.503,0.518-0.706
					c0.224-0.202,0.492-0.36,0.805-0.474s0.66-0.171,1.042-0.171c0.397,0,0.74,0.053,1.031,0.16
					c0.291,0.107,0.537,0.243,0.739,0.408c0.202,0.165,0.366,0.348,0.491,0.546c0.125,0.199,0.217,0.386,0.276,0.563l-1.312,0.551
					c-0.074-0.221-0.208-0.419-0.402-0.596c-0.195-0.176-0.462-0.265-0.8-0.265c-0.324,0-0.592,0.075-0.805,0.226
					c-0.213,0.151-0.32,0.348-0.32,0.59c0,0.235,0.103,0.436,0.309,0.601c0.206,0.165,0.533,0.325,0.982,0.48l0.497,0.165
					c0.316,0.111,0.605,0.237,0.866,0.381c0.261,0.143,0.485,0.314,0.673,0.513c0.187,0.199,0.331,0.425,0.43,0.678
					c0.1,0.254,0.149,0.546,0.149,0.877c0,0.412-0.083,0.767-0.248,1.064c-0.165,0.298-0.377,0.542-0.634,0.734
					c-0.258,0.191-0.548,0.335-0.872,0.43C236.986,440.797,236.67,440.845,236.361,440.845z"/>
				<path style="fill:#FFFFFF;" d="M239.516,432.771h1.61l1.633,4.754l0.287,1.015h0.088l0.309-1.015l1.699-4.754h1.61l-2.879,7.897
					h-1.566L239.516,432.771z"/>
				<path style="fill:#FFFFFF;" d="M251.097,436.334h3.871c0.022,0.089,0.04,0.195,0.055,0.32c0.015,0.125,0.023,0.25,0.023,0.375
					c0,0.507-0.078,0.985-0.232,1.434c-0.154,0.449-0.397,0.849-0.728,1.202c-0.353,0.375-0.775,0.666-1.268,0.871
					c-0.493,0.206-1.055,0.309-1.688,0.309c-0.574,0-1.114-0.103-1.621-0.309c-0.507-0.206-0.949-0.492-1.324-0.86
					c-0.375-0.367-0.673-0.803-0.894-1.307c-0.22-0.504-0.331-1.053-0.331-1.649c0-0.595,0.11-1.145,0.331-1.649
					c0.221-0.504,0.518-0.939,0.894-1.307c0.375-0.367,0.816-0.654,1.324-0.86c0.507-0.206,1.047-0.309,1.621-0.309
					c0.64,0,1.211,0.11,1.715,0.331c0.504,0.221,0.936,0.526,1.296,0.915l-1.026,1.004c-0.257-0.272-0.544-0.48-0.861-0.623
					c-0.316-0.143-0.694-0.215-1.136-0.215c-0.36,0-0.702,0.065-1.026,0.193c-0.323,0.129-0.607,0.311-0.849,0.546
					c-0.243,0.235-0.436,0.52-0.579,0.855c-0.143,0.335-0.215,0.708-0.215,1.119c0,0.412,0.072,0.785,0.215,1.12
					c0.143,0.335,0.338,0.62,0.585,0.855c0.246,0.235,0.531,0.418,0.854,0.546c0.324,0.129,0.669,0.193,1.037,0.193
					c0.419,0,0.774-0.061,1.064-0.182c0.29-0.121,0.539-0.278,0.745-0.469c0.147-0.132,0.274-0.3,0.38-0.502
					c0.107-0.202,0.189-0.428,0.248-0.678h-2.482V436.334z"/>
			</g>
			<g>
				<path style="fill:#FFFFFF;" d="M297.3,431.299c-0.006-1.224-0.959-2.121-2.189-2.14c-0.924-0.014-0.832,0.12-0.834-0.867
					c-0.003-1.097-0.007-2.194,0.003-3.292c0.003-0.379-0.112-0.691-0.362-0.976c-2.342-2.668-4.678-5.342-7.019-8.011
					c-0.12-0.137-0.275-0.244-0.414-0.366c-6.214,0-12.427,0-18.641,0c-0.794,0.293-1.14,0.868-1.138,1.709
					c0.01,3.748,0.004,7.496,0.004,11.243c0,0.556-0.003,0.589-0.55,0.551c-1.497-0.102-2.516,0.986-2.497,2.492
					c0.044,3.476,0.013,6.953,0.014,10.429c0.001,1.58,0.867,2.443,2.45,2.449c0.582,0.002,0.582,0.002,0.582,0.6
					c0,2.219-0.001,4.438,0.001,6.657c0.001,1.192,0.58,1.771,1.768,1.771c8.013,0.001,16.027,0.001,24.04,0
					c1.168,0,1.755-0.583,1.757-1.745c0.002-2.256,0-4.512,0.001-6.768c0-0.512,0.002-0.511,0.52-0.515
					c0.271-0.002,0.541,0.008,0.809-0.058c0.996-0.246,1.69-1.044,1.694-2.069C297.315,438.696,297.318,434.997,297.3,431.299z
					 M268.85,417.162c5.337,0,10.674,0,16.01,0c0.548,0,0.554,0.007,0.554,0.561c0.001,2.243-0.001,4.486,0.001,6.73
					c0.001,0.811,0.249,1.059,1.06,1.059c1.91,0.001,3.821,0,5.731,0.001c0.458,0,0.479,0.021,0.481,0.483
					c0.003,0.887,0.002,1.775,0,2.662c-0.001,0.477-0.024,0.498-0.504,0.499c-3.895,0.001-7.79,0-11.684,0
					c-3.882,0-7.765,0-11.647,0c-0.55,0-0.552-0.001-0.552-0.561c-0.001-3.624-0.001-7.247,0-10.871
					C268.299,417.166,268.303,417.162,268.85,417.162z M292.135,451.579c-3.883,0.001-7.766,0-11.65,0c-3.871,0-7.742,0-11.613,0
					c-0.572,0-0.574-0.002-0.574-0.579c-0.001-1.997-0.001-3.994,0.001-5.991c0-0.464,0.023-0.486,0.478-0.487
					c7.803-0.001,15.607-0.001,23.41,0c0.478,0,0.499,0.02,0.499,0.503c0.001,1.997,0.001,3.994,0,5.991
					C292.687,451.574,292.682,451.579,292.135,451.579z"/>
			</g>
			<g>
				<path style="fill:#FFFFFF;" d="M272.966,434.183v1.831h3.165v1.412h-3.165v1.831h3.518v1.412h-5.007v-7.897h5.007v1.412H272.966
					z"/>
				<path style="fill:#FFFFFF;" d="M277.852,440.669v-7.897h2.779c0.375,0,0.726,0.061,1.053,0.182
					c0.327,0.121,0.612,0.292,0.855,0.513c0.243,0.221,0.434,0.483,0.574,0.789c0.14,0.305,0.209,0.642,0.209,1.009
					c0,0.375-0.07,0.715-0.209,1.02c-0.14,0.305-0.331,0.568-0.574,0.789c-0.243,0.221-0.528,0.392-0.855,0.513
					c-0.327,0.121-0.678,0.182-1.053,0.182h-1.29v2.901H277.852z M280.653,436.356c0.389,0,0.684-0.111,0.882-0.331
					c0.199-0.22,0.298-0.474,0.298-0.761c0-0.14-0.024-0.276-0.072-0.408c-0.048-0.132-0.121-0.248-0.221-0.347
					c-0.099-0.099-0.222-0.178-0.37-0.237c-0.147-0.059-0.32-0.089-0.518-0.089h-1.312v2.173H280.653z"/>
				<path style="fill:#FFFFFF;" d="M286.797,440.845c-0.338,0-0.662-0.048-0.971-0.143c-0.309-0.095-0.592-0.239-0.849-0.43
					c-0.257-0.191-0.482-0.425-0.673-0.7c-0.191-0.276-0.342-0.597-0.452-0.965l1.401-0.551c0.103,0.397,0.283,0.726,0.541,0.987
					c0.257,0.261,0.595,0.392,1.015,0.392c0.154,0,0.303-0.02,0.447-0.061c0.143-0.04,0.272-0.099,0.386-0.176
					c0.114-0.077,0.204-0.175,0.27-0.292c0.066-0.118,0.1-0.254,0.1-0.408c0-0.147-0.026-0.279-0.077-0.397
					c-0.051-0.117-0.138-0.227-0.259-0.331c-0.121-0.103-0.279-0.202-0.474-0.298c-0.195-0.095-0.436-0.195-0.723-0.298
					l-0.485-0.176c-0.213-0.073-0.428-0.173-0.645-0.298c-0.217-0.125-0.414-0.276-0.59-0.452c-0.176-0.176-0.322-0.384-0.436-0.623
					c-0.114-0.239-0.171-0.509-0.171-0.81c0-0.309,0.061-0.597,0.182-0.866c0.121-0.268,0.294-0.503,0.518-0.706
					c0.224-0.202,0.493-0.36,0.805-0.474c0.312-0.114,0.66-0.171,1.042-0.171c0.397,0,0.741,0.053,1.031,0.16
					c0.29,0.107,0.537,0.243,0.739,0.408c0.202,0.165,0.365,0.348,0.491,0.546c0.125,0.199,0.217,0.386,0.276,0.563l-1.312,0.551
					c-0.074-0.221-0.208-0.419-0.403-0.596c-0.195-0.176-0.462-0.265-0.799-0.265c-0.324,0-0.592,0.075-0.805,0.226
					c-0.213,0.151-0.32,0.348-0.32,0.59c0,0.235,0.103,0.436,0.309,0.601c0.206,0.165,0.533,0.325,0.982,0.48l0.496,0.165
					c0.316,0.111,0.605,0.237,0.866,0.381c0.261,0.143,0.485,0.314,0.673,0.513c0.187,0.199,0.331,0.425,0.43,0.678
					c0.099,0.254,0.149,0.546,0.149,0.877c0,0.412-0.083,0.767-0.248,1.064c-0.165,0.298-0.377,0.542-0.634,0.734
					c-0.258,0.191-0.548,0.335-0.872,0.43C287.422,440.797,287.105,440.845,286.797,440.845z"/>
			</g>
			<g>
				<path style="fill:#FFFFFF;" d="M321.394,439.168l4.004-4.985h-3.827v-1.412h5.559v1.5l-3.96,4.985h4.004v1.412h-5.779V439.168z"
					/>
				<path style="fill:#FFFFFF;" d="M328.409,432.771h1.489v7.897h-1.489V432.771z"/>
				<path style="fill:#FFFFFF;" d="M331.486,440.669v-7.897h2.779c0.375,0,0.726,0.061,1.053,0.182
					c0.327,0.121,0.612,0.292,0.855,0.513s0.434,0.483,0.574,0.789c0.14,0.305,0.209,0.642,0.209,1.009
					c0,0.375-0.07,0.715-0.209,1.02c-0.14,0.305-0.331,0.568-0.574,0.789c-0.243,0.221-0.528,0.392-0.855,0.513
					c-0.327,0.121-0.678,0.182-1.053,0.182h-1.29v2.901H331.486z M334.288,436.356c0.389,0,0.684-0.111,0.882-0.331
					c0.199-0.22,0.298-0.474,0.298-0.761c0-0.14-0.024-0.276-0.072-0.408c-0.048-0.132-0.121-0.248-0.221-0.347
					c-0.099-0.099-0.222-0.178-0.37-0.237c-0.147-0.059-0.32-0.089-0.518-0.089h-1.312v2.173H334.288z"/>
			</g>
		</g>
		<g style="opacity:0.61;">
			<path style="fill:#FFFFFF;" d="M300.133,433.27h9.067v2.242h-9.067V433.27z M300.133,437.136h9.067v2.243h-9.067V437.136z"/>
		</g>
	</g>
	<g style="opacity:0.61;">
		<path style="fill:#FFFFFF;" d="M156.756,478.878h1.607c1.263,0,2.114,0.812,2.114,1.974c0,1.161-0.851,1.973-2.114,1.973h-1.607
			V478.878z M158.34,482.464c1.049,0,1.725-0.665,1.725-1.612c0-0.947-0.677-1.613-1.725-1.613h-1.167v3.225H158.34z"/>
		<path style="fill:#FFFFFF;" d="M165.139,480.851c0-1.15,0.879-2.007,2.075-2.007c1.184,0,2.069,0.851,2.069,2.007
			c0,1.156-0.885,2.007-2.069,2.007C166.019,482.858,165.139,482.002,165.139,480.851z M168.866,480.851
			c0-0.942-0.705-1.635-1.652-1.635c-0.953,0-1.663,0.693-1.663,1.635c0,0.941,0.71,1.635,1.663,1.635
			C168.162,482.486,168.866,481.793,168.866,480.851z"/>
		<path style="fill:#FFFFFF;" d="M179.596,478.878l-1.331,3.947h-0.44l-1.156-3.366l-1.161,3.366h-0.434l-1.331-3.947h0.429
			l1.139,3.394l1.178-3.394h0.389l1.161,3.411l1.156-3.411H179.596z"/>
		<path style="fill:#FFFFFF;" d="M187.731,478.878v3.947h-0.344l-2.537-3.202v3.202h-0.417v-3.947h0.344l2.543,3.203v-3.203H187.731
			z"/>
		<path style="fill:#FFFFFF;" d="M193.093,478.878h0.417v3.586h2.21v0.361h-2.627V478.878z"/>
		<path style="fill:#FFFFFF;" d="M200.061,480.851c0-1.15,0.879-2.007,2.075-2.007c1.184,0,2.069,0.851,2.069,2.007
			c0,1.156-0.885,2.007-2.069,2.007C200.941,482.858,200.061,482.002,200.061,480.851z M203.788,480.851
			c0-0.942-0.705-1.635-1.652-1.635c-0.953,0-1.663,0.693-1.663,1.635c0,0.941,0.71,1.635,1.663,1.635
			C203.083,482.486,203.788,481.793,203.788,480.851z"/>
		<path style="fill:#FFFFFF;" d="M211.636,481.77h-2.199l-0.474,1.054h-0.434l1.804-3.947h0.412l1.804,3.947h-0.44L211.636,481.77z
			 M211.484,481.432l-0.947-2.12l-0.947,2.12H211.484z"/>
		<path style="fill:#FFFFFF;" d="M217.28,478.878h1.607c1.263,0,2.114,0.812,2.114,1.974c0,1.161-0.851,1.973-2.114,1.973h-1.607
			V478.878z M218.864,482.464c1.049,0,1.725-0.665,1.725-1.612c0-0.947-0.677-1.613-1.725-1.613h-1.167v3.225H218.864z"/>
		<path style="fill:#FFFFFF;" d="M234.041,481.77h-2.199l-0.474,1.054h-0.434l1.804-3.947h0.412l1.804,3.947h-0.44L234.041,481.77z
			 M233.889,481.432l-0.947-2.12l-0.947,2.12H233.889z"/>
		<path style="fill:#FFFFFF;" d="M239.685,478.878h0.417v3.586h2.21v0.361h-2.627V478.878z"/>
		<path style="fill:#FFFFFF;" d="M247.082,478.878h0.417v3.586h2.21v0.361h-2.627V478.878z"/>
		<path style="fill:#FFFFFF;" d="M260.449,479.239v1.551h2.041v0.361h-2.041v1.675h-0.417v-3.947h2.706v0.361H260.449z"/>
		<path style="fill:#FFFFFF;" d="M267.678,478.878h0.417v3.947h-0.417V478.878z"/>
		<path style="fill:#FFFFFF;" d="M273.456,478.878h0.417v3.586h2.21v0.361h-2.627V478.878z"/>
		<path style="fill:#FFFFFF;" d="M283.644,482.464v0.361h-2.791v-3.947h2.706v0.361h-2.289v1.404h2.041v0.355h-2.041v1.466H283.644z
			"/>
		<path style="fill:#FFFFFF;" d="M294.672,479.239v1.551h2.041v0.361h-2.041v1.675h-0.417v-3.947h2.706v0.361H294.672z"/>
		<path style="fill:#FFFFFF;" d="M301.5,480.851c0-1.15,0.879-2.007,2.075-2.007c1.184,0,2.069,0.851,2.069,2.007
			c0,1.156-0.885,2.007-2.069,2.007C302.379,482.858,301.5,482.002,301.5,480.851z M305.226,480.851
			c0-0.942-0.705-1.635-1.652-1.635c-0.953,0-1.663,0.693-1.663,1.635c0,0.941,0.71,1.635,1.663,1.635
			C304.522,482.486,305.226,481.793,305.226,480.851z"/>
		<path style="fill:#FFFFFF;" d="M313.351,482.825l-0.902-1.269c-0.102,0.011-0.203,0.017-0.316,0.017h-1.06v1.252h-0.417v-3.947
			h1.477c1.004,0,1.613,0.507,1.613,1.353c0,0.62-0.327,1.054-0.902,1.24l0.964,1.353H313.351z M313.328,480.231
			c0-0.632-0.417-0.992-1.207-0.992h-1.048v1.979h1.048C312.911,481.218,313.328,480.851,313.328,480.231z"/>
		<path style="fill:#FFFFFF;" d="M322.907,478.878v3.947h-0.4v-3.158l-1.551,2.656h-0.197l-1.551-2.639v3.14h-0.4v-3.947h0.344
			l1.714,2.926l1.697-2.926H322.907z"/>
		<path style="fill:#FFFFFF;" d="M330.744,481.77h-2.199l-0.473,1.054h-0.434l1.804-3.947h0.411l1.804,3.947h-0.44L330.744,481.77z
			 M330.592,481.432l-0.947-2.12l-0.947,2.12H330.592z"/>
		<path style="fill:#FFFFFF;" d="M336.957,479.239h-1.387v-0.361h3.192v0.361h-1.387v3.586h-0.417V479.239z"/>
		<path style="fill:#FFFFFF;" d="M343.063,482.346l0.164-0.321c0.282,0.276,0.784,0.479,1.302,0.479c0.739,0,1.06-0.31,1.06-0.699
			c0-1.083-2.43-0.417-2.43-1.877c0-0.581,0.451-1.083,1.455-1.083c0.446,0,0.908,0.13,1.224,0.35l-0.141,0.333
			c-0.338-0.22-0.733-0.327-1.083-0.327c-0.722,0-1.043,0.321-1.043,0.716c0,1.083,2.43,0.429,2.43,1.866
			c0,0.581-0.462,1.077-1.472,1.077C343.937,482.858,343.356,482.65,343.063,482.346z"/>
	</g>
</g>
<g>
</g>
<g>
	<g>
		<path style="fill-rule:evenodd;clip-rule:evenodd;fill:#635F5E;" d="M194.92,304.803c4.421,0,8.004,3.411,8.004,7.62
			c0,4.209-3.583,7.62-8.004,7.62c-4.421,0-8.003-3.411-8.003-7.62C186.916,308.214,190.499,304.803,194.92,304.803L194.92,304.803z
			 M195.565,300.978c-6.839,0-12.382,5.345-12.382,11.944c0,6.599,5.543,11.952,12.382,11.952c6.839,0,12.382-5.353,12.382-11.952
			C207.947,306.322,202.404,300.978,195.565,300.978z"/>
		<path style="fill-rule:evenodd;clip-rule:evenodd;fill:#D11317;" d="M194.921,304.803c-0.553,0-1.092,0.052-1.613,0.153
			c-0.521,0.102-1.034,0.238-1.513,0.43l-0.027,0.027l0.019,0.05c0.893,2.349,1.961,4.742,3.595,6.667
			c1.644,1.936,3.762,3.478,6.03,4.658l0.053,0.027c0.033-0.044,0.061-0.086,0.092-0.131c0.288-0.405,0.535-0.842,0.738-1.298
			c0.203-0.456,0.362-0.932,0.468-1.429c0.107-0.496,0.162-1.01,0.162-1.536c0-0.526-0.055-1.04-0.162-1.536
			c-0.107-0.496-0.266-0.973-0.468-1.429c-0.202-0.456-0.45-0.893-0.738-1.298c-0.287-0.405-0.613-0.777-0.975-1.121
			c-0.362-0.345-0.757-0.663-1.183-0.937c-0.426-0.274-0.88-0.506-1.359-0.699c-0.478-0.193-0.984-0.344-1.506-0.445
			C196.013,304.855,195.474,304.803,194.921,304.803L194.921,304.803z M203.853,287.851l-0.003,0.002
			c0.056,0.002,0.118,0.006,0.18,0.013c0.296,0.046,0.648,0.178,0.821,0.422c0.245,0.345,0.292,0.747,0.33,1.168
			c0.071,0.762-0.106,1.662-0.199,2.489c-0.198,1.753-0.565,3.519-0.768,5.238c-0.067,0.567-0.177,1.443,0.353,1.675
			c0.766,0.335,1.551-0.731,2.136-1.329c1.707-1.746,3.162-3.398,4.962-5.277c0.529-0.553,1.474-1.233,2.174-1.544
			c0.476-0.211,1.037-0.435,1.544-0.315c0.281,0.066,0.528,0.298,0.661,0.553c0.232,0.445,0.217,1.004,0.13,1.498
			c-0.12,0.688-0.545,1.294-0.883,1.905c-0.688,1.243-1.569,2.365-2.319,3.572c-0.67,1.076-1.463,2.102-1.951,3.272
			c-0.238,0.569-0.85,1.31-0.461,1.789c0.399,0.493,1.285,0.082,1.897-0.084c1.019-0.277,1.856-1.009,2.804-1.475
			c1.282-0.631,2.554-1.309,3.902-1.782c0.49-0.172,0.925-0.296,1.444-0.3c0.502-0.003,0.951-0.036,1.368,0.246
			c0.256,0.174,0.424,0.406,0.453,0.714c0.043,0.463-0.253,1.08-0.499,1.475c-0.346,0.554-0.795,0.908-1.26,1.367
			c-1.462,1.444-3.011,2.598-4.624,3.871c-1.398,1.104-3.003,1.952-4.278,3.196c-0.632,0.616-1.7,1.363-1.521,2.227
			c0.187,0.907,1.489,1.082,2.366,1.183c1.076,0.124,1.946-0.006,2.957,0.138c0.68,0.097,1.548,0.143,2.135,0.499
			c0.583,0.354,1.272,0.862,1.252,1.544c-0.021,0.75-0.892,1.28-1.552,1.636c-1.957,1.057-4.276,1.206-6.498,1.329
			c-1.43,0.079-2.782-0.055-4.186-0.338l-0.146-0.03c0.148-0.275,0.274-0.535,0.4-0.822c0.313-0.715,0.557-1.465,0.722-2.243
			c0.082-0.389,0.15-0.789,0.192-1.19c0.042-0.402,0.061-0.809,0.061-1.221c0-0.413-0.019-0.82-0.061-1.221
			c-0.042-0.401-0.11-0.794-0.192-1.183c-0.165-0.778-0.409-1.528-0.722-2.243c-0.313-0.714-0.692-1.4-1.137-2.035
			c-0.445-0.635-0.953-1.227-1.513-1.767c-0.56-0.54-1.177-1.03-1.836-1.459c-0.659-0.429-1.357-0.796-2.097-1.098
			c-0.741-0.302-1.521-0.532-2.327-0.691c-0.403-0.079-0.812-0.144-1.229-0.184c-0.416-0.041-0.84-0.061-1.267-0.061
			c-0.428,0-0.851,0.021-1.267,0.061c-0.416,0.041-0.826,0.105-1.229,0.184c-0.697,0.138-2.07,0.599-2.07,0.599
			s-0.025-0.666-0.027-0.999c-0.021-3.124,0.294-5.279,1.26-7.205c0.413-0.824,1.109-2.297,2.074-2.243
			c0.631,0.035,1.039,1.049,1.16,1.505c0.256,0.971,0.125,1.997,0.23,2.996c0.054,0.511,0.044,1.459,0.216,1.943
			c0.134,0.381,0.264,0.566,0.653,0.676c0.375,0.106,0.659-0.133,0.945-0.399c0.456-0.424,0.759-1.056,1.022-1.621
			c1.069-2.298,2.128-4.604,3.249-6.997c0.219-0.468,0.588-0.943,1.014-1.237c0.331-0.228,0.636-0.388,1.005-0.393h0.027
			L203.853,287.851z"/>
		<path style="fill-rule:evenodd;clip-rule:evenodd;fill:#FFFFFF;" d="M206.571,318.398c0.148-0.275,0.274-0.536,0.4-0.823
			c0.313-0.715,0.557-1.465,0.722-2.243c0.082-0.389,0.15-0.789,0.192-1.19c0.043-0.402,0.061-0.809,0.061-1.222
			c0-0.413-0.019-0.819-0.061-1.221c-0.042-0.402-0.11-0.794-0.192-1.183c-0.165-0.777-0.409-1.528-0.722-2.243
			c-0.314-0.714-0.692-1.4-1.137-2.035c-0.445-0.635-0.953-1.226-1.513-1.766c-0.56-0.541-1.177-1.031-1.836-1.459
			c-0.659-0.429-1.357-0.796-2.097-1.099c-0.741-0.302-1.521-0.532-2.328-0.691c-0.403-0.079-0.812-0.143-1.229-0.184
			c-0.416-0.041-0.84-0.062-1.267-0.062c-0.428,0-0.851,0.021-1.267,0.062c-0.417,0.041-0.826,0.105-1.229,0.184
			c-0.697,0.138-1.421,0.346-2.07,0.592c0.079,0.975,0.352,2.475,0.771,3.6l0.032-0.012c0.479-0.193,0.984-0.344,1.505-0.446
			c0.521-0.102,1.06-0.154,1.613-0.154c0.553,0,1.092,0.052,1.613,0.154c0.521,0.102,1.027,0.253,1.506,0.446
			c0.479,0.193,0.934,0.425,1.359,0.699c0.426,0.274,0.821,0.592,1.183,0.937c0.362,0.345,0.688,0.716,0.976,1.121
			c0.288,0.405,0.535,0.842,0.737,1.298c0.203,0.456,0.362,0.932,0.468,1.428c0.106,0.496,0.161,1.01,0.161,1.536
			c0,0.526-0.055,1.04-0.161,1.536c-0.107,0.496-0.266,0.973-0.468,1.428c-0.203,0.456-0.45,0.893-0.737,1.298
			c-0.032,0.044-0.063,0.085-0.095,0.13C203.148,317.591,204.987,318.075,206.571,318.398z"/>
	</g>
	<path style="fill-rule:evenodd;clip-rule:evenodd;fill:#D11317;" d="M389.708,209.895c3.102-3.45,10.814-2.152,19.243,3.074
		c9.193-7.756,19.059-12.478,23.502-7.79c3.717,4.187,0.857,13.668-6.373,23.772c7.352,9.76,10.48,19.566,6.35,23.457
		c-4.024,4.602-13.679,1.702-23.52-5.935c-8.346,6.062-15.964,8.276-19.267,4.909c-3.253-3.315-1.017-12.14,4.192-20.941
		C388.083,221.857,386.103,213.8,389.708,209.895z"/>
	
		<ellipse transform="matrix(0.9457 -0.3251 0.3251 0.9457 -50.0495 156.6344)" style="fill-rule:evenodd;clip-rule:evenodd;fill:#7E8085;" cx="443.623" cy="228.065" rx="10.018" ry="8.93"/>
	<path style="fill-rule:evenodd;clip-rule:evenodd;fill:#7E8085;" d="M437.341,191.916c3.695-0.884,6.979,1.059,7.336,4.34
		c0.357,3.281-2.348,6.658-6.043,7.542s-6.979-1.059-7.336-4.34C430.941,196.177,433.646,192.8,437.341,191.916z"/>
	
		<ellipse transform="matrix(0.6699 -0.7425 0.7425 0.6699 -11.9387 369.1661)" style="fill-rule:evenodd;clip-rule:evenodd;fill:#7E8085;" cx="409.183" cy="198.009" rx="8.529" ry="7.174"/>
	<path style="fill-rule:evenodd;clip-rule:evenodd;fill:#7E8085;" d="M389.777,204.691c-0.277-2.709-2.469-4.331-4.897-3.623
		c-2.428,0.709-4.172,3.48-3.896,6.189c0.277,2.709,2.469,4.331,4.897,3.623C388.31,210.171,390.054,207.4,389.777,204.691z"/>
	<path style="fill-rule:evenodd;clip-rule:evenodd;fill:#7E8085;" d="M386.217,235.864c-2.59,2.76-6.487,2.798-8.703,0.084
		c-2.216-2.713-1.913-7.15,0.678-9.91c2.59-2.76,6.487-2.798,8.703-0.084C389.11,228.667,388.807,233.104,386.217,235.864z"/>
	<path style="fill-rule:evenodd;clip-rule:evenodd;fill:#7E8085;" d="M416.665,260.599c0.731,4.332-2.041,8.183-6.192,8.602
		c-4.151,0.419-8.109-2.752-8.84-7.084c-0.731-4.332,2.041-8.183,6.192-8.602C411.976,253.096,415.934,256.267,416.665,260.599z"/>
	<path style="fill-rule:evenodd;clip-rule:evenodd;fill:#7E8085;" d="M444.328,258.143c0.633,3.335-1.768,6.299-5.363,6.622
		c-3.595,0.323-7.023-2.119-7.657-5.453c-0.633-3.335,1.768-6.299,5.363-6.622C440.266,252.367,443.694,254.808,444.328,258.143z"/>
	<path style="fill-rule:evenodd;clip-rule:evenodd;fill:#9F9EA1;" d="M468.468,220.209c4.319,0.493,7.186,3.901,6.403,7.613
		c-0.783,3.711-4.919,6.32-9.238,5.827c-4.319-0.493-7.186-3.901-6.403-7.613C460.012,222.325,464.149,219.716,468.468,220.209z"/>
	<path style="fill-rule:evenodd;clip-rule:evenodd;fill:#9F9EA1;" d="M446.804,182.673c2.543-1.515,5.452-1.097,6.497,0.932
		c1.045,2.03-0.168,4.903-2.711,6.418c-2.543,1.515-5.452,1.097-6.497-0.932C443.047,187.061,444.261,184.188,446.804,182.673z"/>
	<path style="fill-rule:evenodd;clip-rule:evenodd;fill:#9F9EA1;" d="M406.883,176.217c2.76-1.813,5.918-1.313,7.053,1.115
		c1.135,2.429-0.183,5.867-2.943,7.679c-2.76,1.813-5.918,1.313-7.053-1.115C402.805,181.467,404.123,178.029,406.883,176.217z"/>
	<path style="fill-rule:evenodd;clip-rule:evenodd;fill:#9F9EA1;" d="M377.31,197.034c1.32-1.284,3.045-1.273,3.855,0.026
		c0.809,1.299,0.396,3.393-0.924,4.677c-1.319,1.284-3.045,1.272-3.854-0.026C375.577,200.413,375.991,198.319,377.31,197.034z"/>
	<path style="fill-rule:evenodd;clip-rule:evenodd;fill:#9F9EA1;" d="M366.051,233.457c0.782,2.332,2.929,3.402,4.796,2.39
		s2.747-3.723,1.966-6.054c-0.782-2.332-2.929-3.402-4.796-2.39C366.15,228.414,365.27,231.125,366.051,233.457z"/>
	<path style="fill-rule:evenodd;clip-rule:evenodd;fill:#9F9EA1;" d="M409.263,284.396c2.877,0.271,5.128-1.969,5.028-5.003
		c-0.1-3.034-2.512-5.713-5.389-5.984c-2.877-0.271-5.128,1.969-5.028,5.003C403.974,281.446,406.387,284.125,409.263,284.396z"/>
	<path style="fill-rule:evenodd;clip-rule:evenodd;fill:#9F9EA1;" d="M451.829,272.983c2.028-1.477,2.194-4.286,0.37-6.275
		c-1.824-1.989-4.946-2.403-6.975-0.927c-2.028,1.477-2.194,4.286-0.37,6.275C446.678,274.045,449.801,274.46,451.829,272.983z"/>
	<g>
		
			<path style="fill-rule:evenodd;clip-rule:evenodd;fill:#635F5E;stroke:#FFFFFF;stroke-width:0.216;stroke-miterlimit:22.9256;" d="
			M39.335,311.465c0.588-0.349,1.247-0.539,1.977-0.539c1.101,0,2.055,0.399,2.834,1.177c0.893,0.893,1.281,2.022,1.281,3.276
			c0,1.259-0.376,2.405-1.285,3.295c-0.784,0.768-1.741,1.159-2.837,1.159c-0.801,0-1.515-0.231-2.144-0.649
			c-0.049,0.08-0.108,0.154-0.177,0.223c-0.234,0.234-0.535,0.351-0.865,0.351s-0.631-0.117-0.865-0.351
			c-0.232-0.232-0.351-0.529-0.351-0.858v-9.572c0-0.333,0.115-0.636,0.351-0.872c0.234-0.234,0.535-0.351,0.865-0.351
			s0.631,0.117,0.865,0.352c0.236,0.236,0.351,0.54,0.351,0.872V311.465L39.335,311.465z M48.188,319.264l-0.882,2.266
			c-0.06,0.159-0.079,0.332-0.079,0.501c0,0.295,0.136,0.552,0.337,0.761c0.226,0.235,0.517,0.359,0.843,0.359
			c0.532,0,0.922-0.311,1.123-0.793l4.027-9.676c0.069-0.16,0.086-0.348,0.086-0.527c0-0.306-0.135-0.574-0.344-0.791
			c-0.232-0.24-0.531-0.366-0.865-0.366c-0.525,0-0.915,0.298-1.12,0.771l-1.809,4.379l-1.772-4.395l-0.005-0.011
			c-0.21-0.49-0.637-0.744-1.165-0.744c-0.32,0-0.6,0.137-0.82,0.366c-0.207,0.215-0.344,0.48-0.344,0.784
			c0,0.19,0.027,0.38,0.098,0.556L48.188,319.264L48.188,319.264z M63.008,310.644v7.906c0,0.334-0.126,0.633-0.366,0.865
			c-0.235,0.227-0.531,0.344-0.857,0.344c-0.328,0-0.625-0.119-0.858-0.351c-0.232-0.232-0.351-0.529-0.351-0.858v-7.906h-2.464
			c-0.316,0-0.604-0.112-0.828-0.337c-0.224-0.224-0.337-0.512-0.337-0.828c0-0.314,0.111-0.6,0.329-0.827
			c0.223-0.233,0.514-0.352,0.836-0.352h7.345c0.32,0,0.609,0.118,0.835,0.344c0.226,0.226,0.344,0.515,0.344,0.835
			c0,0.322-0.119,0.613-0.352,0.836c-0.227,0.218-0.513,0.329-0.827,0.329H63.008L63.008,310.644z M69.065,316.396h4.312
			c0.339,0,0.651-0.113,0.887-0.359c0.224-0.233,0.337-0.527,0.337-0.85c0-1.1-0.311-2.111-1.031-2.951
			c-0.783-0.913-1.832-1.311-3.025-1.311c-1.248,0-2.338,0.424-3.114,1.419c-0.686,0.879-0.956,1.931-0.956,3.035
			c0,1.207,0.292,2.393,1.16,3.274c0.858,0.871,2.008,1.18,3.205,1.18c0.565,0,1.143-0.055,1.687-0.214
			c0.214-0.062,0.423-0.141,0.625-0.236c0.2-0.094,0.398-0.196,0.593-0.3c0.397-0.212,0.605-0.586,0.605-1.034
			c0-0.302-0.132-0.568-0.354-0.771c-0.205-0.188-0.456-0.306-0.737-0.306c-0.245,0-0.484,0.082-0.701,0.19
			c-0.503,0.252-1.103,0.326-1.659,0.326c-0.497,0-1.023-0.095-1.399-0.444C69.3,316.858,69.159,316.638,69.065,316.396
			L69.065,316.396z M75.443,308.978c0-0.333,0.116-0.636,0.351-0.872c0.234-0.234,0.535-0.352,0.865-0.352
			c0.33,0,0.631,0.117,0.865,0.352c0.236,0.236,0.351,0.54,0.351,0.872v9.572c0,0.328-0.119,0.625-0.351,0.858
			c-0.234,0.234-0.535,0.351-0.865,0.351c-0.33,0-0.63-0.117-0.865-0.351c-0.232-0.232-0.351-0.529-0.351-0.858V308.978
			L75.443,308.978z M82.323,316.293l-0.657,0.596v1.661c0,0.334-0.126,0.633-0.366,0.865c-0.235,0.227-0.531,0.344-0.858,0.344
			c-0.328,0-0.625-0.119-0.857-0.351c-0.232-0.232-0.351-0.529-0.351-0.858v-9.572c0-0.327,0.118-0.622,0.344-0.858
			c0.232-0.24,0.531-0.366,0.865-0.366c0.332,0,0.63,0.124,0.865,0.359c0.235,0.235,0.359,0.533,0.359,0.865v4.786l2.608-2.411
			l0.014-0.011c0.252-0.205,0.55-0.314,0.875-0.314c0.368,0,0.694,0.155,0.891,0.472c0.121,0.196,0.215,0.415,0.215,0.649
			c0,0.371-0.149,0.699-0.411,0.961l-0.011,0.011l-1.762,1.578l2.365,3.136c0.173,0.225,0.26,0.491,0.26,0.775
			c0,0.323-0.13,0.61-0.367,0.828c-0.222,0.205-0.495,0.322-0.798,0.322c-0.399,0-0.746-0.165-1.011-0.462l-0.017-0.02
			L82.323,316.293L82.323,316.293z M91.15,310.926c1.204,0,2.299,0.364,3.138,1.246c0.842,0.884,1.183,2,1.183,3.208
			c0,1.207-0.341,2.324-1.183,3.208c-0.84,0.882-1.934,1.246-3.138,1.246c-1.205,0-2.298-0.364-3.138-1.246
			c-0.842-0.884-1.183-2-1.183-3.208c0-1.208,0.341-2.324,1.183-3.208C88.852,311.289,89.945,310.926,91.15,310.926L91.15,310.926z
			 M98.525,311.612c0.589-0.453,1.302-0.687,2.124-0.687c0.648,0,1.242,0.195,1.756,0.569c0.214,0.148,0.398,0.323,0.556,0.52
			c0.136-0.146,0.284-0.279,0.444-0.387c0.658-0.471,1.404-0.702,2.213-0.702c0.948,0,1.74,0.372,2.31,1.133
			c0.492,0.658,0.699,1.428,0.699,2.244v4.248c0,0.334-0.126,0.633-0.366,0.865c-0.235,0.227-0.531,0.344-0.858,0.344
			c-0.328,0-0.625-0.119-0.857-0.351c-0.232-0.232-0.351-0.529-0.351-0.858v-3.982c0-0.324-0.035-0.803-0.23-1.077
			c-0.148-0.207-0.5-0.236-0.729-0.236c-0.724,0-1.215,0.445-1.579,1.023v4.273c0,0.334-0.126,0.633-0.366,0.865
			c-0.235,0.227-0.531,0.344-0.858,0.344c-0.328,0-0.625-0.119-0.857-0.351c-0.232-0.232-0.351-0.529-0.351-0.858v-3.982
			c0-0.324-0.035-0.803-0.23-1.077c-0.148-0.207-0.5-0.236-0.729-0.236c-0.724,0-1.215,0.445-1.579,1.023v4.273
			c0,0.334-0.126,0.633-0.366,0.865c-0.235,0.227-0.531,0.344-0.858,0.344c-0.328,0-0.625-0.119-0.857-0.351
			c-0.232-0.232-0.351-0.529-0.351-0.858v-6.328c0-0.327,0.118-0.622,0.344-0.858c0.232-0.24,0.531-0.366,0.865-0.366
			c0.332,0,0.63,0.124,0.865,0.359C98.406,311.436,98.472,311.521,98.525,311.612L98.525,311.612z M115.118,308.226
			c0.332,0,0.63,0.124,0.865,0.359c0.235,0.235,0.359,0.533,0.359,0.865v9.1c0,0.334-0.126,0.633-0.366,0.865
			c-0.235,0.227-0.531,0.344-0.858,0.344c-0.328,0-0.625-0.119-0.857-0.351c-0.232-0.232-0.351-0.529-0.351-0.858v-9.1
			c0-0.327,0.118-0.622,0.344-0.858C114.485,308.352,114.785,308.226,115.118,308.226L115.118,308.226z M120.28,314.32v4.23
			c0,0.334-0.126,0.633-0.366,0.865c-0.235,0.227-0.531,0.344-0.858,0.344c-0.328,0-0.625-0.119-0.857-0.351
			c-0.232-0.232-0.351-0.529-0.351-0.858v-6.328c0-0.333,0.115-0.636,0.351-0.872c0.232-0.232,0.529-0.351,0.857-0.351
			c0.327,0,0.622,0.118,0.858,0.344c0.108,0.104,0.192,0.222,0.253,0.351c0.102-0.076,0.206-0.147,0.312-0.208
			c0.572-0.333,1.206-0.561,1.874-0.561c0.499,0,1.022,0.066,1.478,0.28c0.39,0.183,0.729,0.439,1.009,0.766
			c0.58,0.679,0.824,1.503,0.824,2.389v4.189c0,0.334-0.126,0.633-0.366,0.865c-0.235,0.227-0.531,0.344-0.857,0.344
			c-0.328,0-0.625-0.119-0.857-0.351c-0.232-0.232-0.351-0.529-0.351-0.858v-4.041c0-0.329-0.05-0.716-0.26-0.983
			c-0.182-0.232-0.546-0.271-0.817-0.271C121.383,313.255,120.758,313.756,120.28,314.32L120.28,314.32z M132.639,319.184
			c-0.631,0.419-1.348,0.649-2.151,0.649c-1.094,0-2.048-0.393-2.83-1.159c-0.908-0.89-1.285-2.036-1.285-3.295
			c0-1.255,0.387-2.383,1.281-3.276c0.779-0.779,1.733-1.177,2.834-1.177c0.73,0,1.389,0.19,1.977,0.539v-2.487
			c0-0.333,0.116-0.636,0.351-0.872c0.234-0.234,0.535-0.352,0.865-0.352s0.631,0.117,0.865,0.352
			c0.236,0.236,0.351,0.54,0.351,0.872v9.572c0,0.328-0.119,0.625-0.351,0.858c-0.234,0.234-0.535,0.351-0.865,0.351
			c-0.33,0-0.631-0.117-0.865-0.351C132.747,319.339,132.688,319.264,132.639,319.184L132.639,319.184z M140.001,310.926
			c1.204,0,2.299,0.364,3.138,1.246c0.842,0.884,1.183,2,1.183,3.208c0,1.207-0.341,2.324-1.183,3.208
			c-0.84,0.882-1.934,1.246-3.138,1.246c-1.205,0-2.298-0.364-3.138-1.246c-0.842-0.884-1.183-2-1.183-3.208
			c0-1.208,0.341-2.324,1.183-3.208C137.703,311.289,138.795,310.926,140.001,310.926L140.001,310.926z M147.537,314.32v4.23
			c0,0.334-0.126,0.633-0.366,0.865c-0.235,0.227-0.531,0.344-0.857,0.344c-0.328,0-0.625-0.119-0.857-0.351
			c-0.232-0.232-0.351-0.529-0.351-0.858v-6.328c0-0.333,0.115-0.636,0.351-0.872c0.232-0.232,0.529-0.351,0.857-0.351
			c0.327,0,0.622,0.118,0.857,0.344c0.108,0.104,0.192,0.222,0.253,0.351c0.102-0.076,0.206-0.147,0.312-0.208
			c0.572-0.333,1.206-0.561,1.874-0.561c0.499,0,1.022,0.066,1.478,0.28c0.39,0.183,0.729,0.439,1.009,0.766
			c0.58,0.679,0.824,1.503,0.824,2.389v4.189c0,0.334-0.126,0.633-0.366,0.865c-0.235,0.227-0.531,0.344-0.857,0.344
			c-0.328,0-0.625-0.119-0.857-0.351c-0.232-0.232-0.351-0.529-0.351-0.858v-4.041c0-0.329-0.05-0.716-0.26-0.983
			c-0.182-0.232-0.546-0.271-0.817-0.271C148.64,313.255,148.015,313.756,147.537,314.32L147.537,314.32z M156.234,316.396
			c0.095,0.242,0.235,0.462,0.436,0.649c0.376,0.349,0.902,0.444,1.399,0.444c0.556,0,1.156-0.074,1.659-0.326
			c0.217-0.108,0.456-0.19,0.701-0.19c0.281,0,0.532,0.117,0.737,0.306c0.222,0.203,0.354,0.468,0.354,0.771
			c0,0.447-0.208,0.822-0.605,1.034c-0.195,0.104-0.393,0.206-0.593,0.3c-0.202,0.095-0.411,0.174-0.625,0.236
			c-0.544,0.159-1.122,0.214-1.687,0.214c-1.197,0-2.347-0.309-3.205-1.18c-0.868-0.881-1.16-2.067-1.16-3.274
			c0-1.103,0.27-2.156,0.956-3.035c0.777-0.995,1.867-1.419,3.114-1.419c1.193,0,2.242,0.398,3.025,1.311
			c0.72,0.84,1.031,1.851,1.031,2.951c0,0.323-0.113,0.617-0.337,0.85c-0.236,0.246-0.548,0.359-0.887,0.359H156.234
			L156.234,316.396z M166.521,317.01c-0.01-0.007-0.024-0.015-0.032-0.019c-0.219-0.114-0.47-0.195-0.707-0.259
			c-0.351-0.094-0.704-0.184-1.057-0.27c-0.411-0.1-0.81-0.243-1.187-0.434c-0.387-0.197-0.726-0.463-0.998-0.802
			c-0.308-0.385-0.444-0.845-0.444-1.336c0-0.417,0.058-0.839,0.218-1.226c0.152-0.366,0.379-0.685,0.68-0.943
			c0.703-0.602,1.619-0.795,2.523-0.795c0.795,0,1.573,0.133,2.322,0.4c0.239,0.085,0.441,0.233,0.584,0.442
			c0.136,0.199,0.205,0.427,0.205,0.668c0,0.29-0.123,0.546-0.321,0.753c-0.194,0.202-0.438,0.345-0.725,0.345
			c-0.189,0-0.381-0.042-0.561-0.099c-0.448-0.14-0.918-0.196-1.386-0.196c-0.293,0-0.719,0.031-0.97,0.201
			c-0.084,0.057-0.196,0.143-0.196,0.257c0,0.072,0.006,0.108,0.067,0.145c0.207,0.124,0.449,0.21,0.682,0.273
			c0.347,0.095,0.696,0.18,1.047,0.26c0.409,0.093,0.809,0.227,1.186,0.41l0.011,0.005c0.93,0.477,1.447,1.263,1.447,2.314
			c0,0.783-0.303,1.448-0.902,1.951c-0.698,0.586-1.598,0.777-2.489,0.777c-1.04,0-2.038-0.226-2.949-0.732l-0.026-0.014
			l-0.024-0.017c-0.299-0.211-0.482-0.518-0.482-0.888c0-0.303,0.098-0.582,0.298-0.81c0.198-0.225,0.459-0.369,0.763-0.369
			c0.235,0,0.467,0.07,0.68,0.166c0.523,0.234,1.079,0.336,1.651,0.336c0.251,0,0.881-0.027,1.04-0.276
			C166.509,317.165,166.52,317.083,166.521,317.01L166.521,317.01z M169.633,312.223c0-0.333,0.115-0.636,0.351-0.872
			c0.234-0.234,0.535-0.351,0.865-0.351c0.33,0,0.631,0.117,0.865,0.351c0.236,0.236,0.351,0.539,0.351,0.872v6.328
			c0,0.328-0.119,0.625-0.351,0.858c-0.234,0.234-0.535,0.351-0.865,0.351c-0.33,0-0.63-0.117-0.865-0.351
			c-0.232-0.232-0.351-0.529-0.351-0.858V312.223L169.633,312.223z M172.198,309.332c0,0.352-0.132,0.667-0.381,0.916
			c-0.249,0.249-0.564,0.381-0.916,0.381h-0.089c-0.352,0-0.668-0.132-0.916-0.381c-0.249-0.249-0.381-0.564-0.381-0.916v-0.059
			c0-0.352,0.132-0.668,0.381-0.917c0.249-0.249,0.564-0.381,0.916-0.381h0.089c0.352,0,0.668,0.132,0.916,0.381
			c0.249,0.249,0.381,0.564,0.381,0.917V309.332L172.198,309.332z M178.1,319.166c-0.141,0.09-0.287,0.173-0.433,0.25
			c-0.597,0.315-1.289,0.417-1.958,0.417c-0.766,0-1.474-0.218-2.055-0.724c-0.608-0.53-0.895-1.23-0.895-2.033
			c0-0.877,0.34-1.617,1.043-2.147c0.819-0.616,1.893-0.788,2.894-0.788h1.208c-0.037-0.22-0.113-0.437-0.266-0.569
			c-0.282-0.243-0.779-0.288-1.133-0.288c-0.6,0-1.227,0.146-1.796,0.328l-0.017,0.005l-0.017,0.004
			c-0.13,0.032-0.264,0.046-0.398,0.046c-0.267,0-0.498-0.126-0.686-0.306c-0.242-0.231-0.331-0.548-0.331-0.874
			c0-0.473,0.296-0.809,0.714-0.988c0.886-0.378,1.817-0.575,2.781-0.575c1.048,0,2.014,0.306,2.733,1.092
			c0.604,0.661,0.88,1.466,0.88,2.359v4.174c0,0.334-0.126,0.633-0.366,0.865c-0.235,0.227-0.531,0.344-0.857,0.344
			c-0.328,0-0.625-0.119-0.858-0.351C178.214,319.334,178.151,319.252,178.1,319.166L178.1,319.166z M39.335,316.71
			c0.491,0.487,1.07,0.779,1.785,0.779c0.859,0,1.43-0.33,1.73-1.147c0.111-0.302,0.143-0.642,0.143-0.962
			c0-0.584-0.119-1.18-0.523-1.61c-0.365-0.373-0.838-0.5-1.351-0.5c-0.715,0-1.294,0.293-1.785,0.779V316.71L39.335,316.71z
			 M69.028,314.215c0.023-0.065,0.051-0.129,0.083-0.19c0.311-0.595,0.762-0.873,1.434-0.873c0.402,0,0.756,0.11,1.062,0.371
			c0.23,0.196,0.38,0.429,0.47,0.692H69.028L69.028,314.215z M89.874,317.049c0.172,0.158,0.368,0.276,0.589,0.351
			c0.22,0.075,0.448,0.119,0.68,0.119c0.232,0,0.461-0.044,0.68-0.119c0.225-0.076,0.426-0.195,0.598-0.345
			c0.48-0.436,0.618-1.064,0.618-1.691c0-0.625-0.146-1.228-0.62-1.664c-0.358-0.329-0.785-0.461-1.268-0.461
			c-0.83,0-1.381,0.336-1.712,1.102c-0.137,0.317-0.177,0.688-0.177,1.03c0,0.344,0.041,0.713,0.177,1.032
			C89.542,316.643,89.681,316.873,89.874,317.049L89.874,317.049z M132.464,314.049c-0.491-0.487-1.07-0.779-1.785-0.779
			c-0.859,0-1.416,0.333-1.715,1.147c-0.113,0.308-0.158,0.635-0.158,0.962c0,0.587,0.124,1.178,0.542,1.614
			c0.357,0.373,0.827,0.496,1.332,0.496c0.715,0,1.294-0.293,1.785-0.779V314.049L132.464,314.049z M138.724,317.049
			c0.172,0.158,0.367,0.276,0.589,0.351c0.22,0.075,0.448,0.119,0.68,0.119c0.232,0,0.461-0.044,0.68-0.119
			c0.225-0.076,0.426-0.195,0.598-0.345c0.48-0.436,0.618-1.064,0.618-1.691c0-0.625-0.146-1.228-0.62-1.664
			c-0.358-0.329-0.785-0.461-1.268-0.461c-0.83,0-1.381,0.336-1.712,1.102c-0.137,0.317-0.177,0.688-0.177,1.03
			c0,0.344,0.041,0.713,0.177,1.032C138.392,316.643,138.531,316.873,138.724,317.049L138.724,317.049z M156.198,314.215h3.05
			c-0.09-0.262-0.24-0.496-0.47-0.692c-0.307-0.262-0.661-0.371-1.062-0.371c-0.672,0-1.123,0.278-1.434,0.873
			C156.248,314.086,156.221,314.15,156.198,314.215L156.198,314.215z M177.937,316.781v-0.473h-1.062
			c-0.438,0-1.008,0.035-1.413,0.217c-0.192,0.087-0.269,0.191-0.269,0.403c0,0.125,0.018,0.27,0.096,0.373
			c0.175,0.232,0.663,0.262,0.922,0.262c0.365,0,0.704-0.088,1.021-0.268C177.484,317.152,177.727,316.983,177.937,316.781z"/>
	</g>
	<path style="fill-rule:evenodd;clip-rule:evenodd;fill:#635F5E;stroke:#635F5E;stroke-width:0.216;stroke-miterlimit:22.9256;" d="
		M38.79,312.592c0.728-0.747,1.568-1.121,2.522-1.121s1.77,0.339,2.448,1.018c0.747,0.747,1.121,1.711,1.121,2.891
		c0,1.2-0.374,2.168-1.121,2.906c-0.688,0.669-1.507,1.003-2.456,1.003s-1.787-0.374-2.515-1.121v0.383
		c0,0.187-0.064,0.344-0.192,0.472c-0.128,0.128-0.288,0.192-0.479,0.192s-0.352-0.064-0.479-0.192
		c-0.128-0.128-0.192-0.285-0.192-0.472v-9.572c0-0.197,0.064-0.359,0.192-0.487c0.128-0.128,0.288-0.192,0.479-0.192
		s0.352,0.064,0.479,0.192c0.128,0.128,0.192,0.29,0.192,0.487V312.592L38.79,312.592z M38.79,316.928
		c0.669,0.737,1.445,1.106,2.33,1.106c1.121,0,1.868-0.501,2.242-1.504c0.118-0.334,0.177-0.718,0.177-1.15
		c0-0.846-0.226-1.509-0.678-1.991c-0.433-0.442-1.013-0.664-1.74-0.664c-0.885,0-1.662,0.369-2.33,1.106V316.928L38.79,316.928z
		 M52.433,311.544c0.187,0,0.344,0.066,0.472,0.199c0.128,0.133,0.192,0.27,0.192,0.413c0,0.143-0.015,0.248-0.044,0.317
		l-4.027,9.676c-0.128,0.305-0.334,0.457-0.619,0.457c-0.177,0-0.327-0.064-0.45-0.192c-0.123-0.128-0.184-0.256-0.184-0.384
		c0-0.128,0.015-0.231,0.044-0.31l0.959-2.463l-2.773-6.755c-0.039-0.098-0.059-0.216-0.059-0.354s0.064-0.273,0.192-0.406
		c0.128-0.133,0.27-0.199,0.428-0.199c0.324,0,0.546,0.138,0.664,0.413l2.271,5.634l2.316-5.605
		C51.941,311.692,52.148,311.544,52.433,311.544L52.433,311.544z M65.457,308.845c0.177,0,0.327,0.061,0.45,0.184
		c0.123,0.123,0.184,0.273,0.184,0.45c0,0.177-0.061,0.324-0.184,0.443c-0.123,0.118-0.273,0.177-0.45,0.177h-2.994v8.451
		c0,0.187-0.066,0.344-0.199,0.472c-0.133,0.128-0.293,0.192-0.479,0.192c-0.187,0-0.344-0.064-0.472-0.192
		c-0.128-0.128-0.192-0.285-0.192-0.472v-8.451h-3.009c-0.177,0-0.324-0.059-0.442-0.177c-0.118-0.118-0.177-0.266-0.177-0.443
		c0-0.177,0.059-0.327,0.177-0.45c0.118-0.123,0.266-0.184,0.442-0.184H65.457L65.457,308.845z M68.377,315.851
		c0.079,0.669,0.329,1.2,0.752,1.593c0.423,0.393,1.013,0.59,1.77,0.59c0.757,0,1.391-0.128,1.903-0.383
		c0.177-0.088,0.329-0.133,0.457-0.133c0.128,0,0.251,0.054,0.369,0.162c0.118,0.108,0.177,0.231,0.177,0.369
		c0,0.256-0.106,0.44-0.317,0.553c-0.211,0.113-0.401,0.209-0.568,0.288s-0.349,0.147-0.546,0.206
		c-0.443,0.128-0.954,0.192-1.534,0.192c-1.209,0-2.149-0.339-2.817-1.018c-0.669-0.678-1.003-1.642-1.003-2.891
		c0-1.082,0.28-1.981,0.841-2.699c0.629-0.806,1.524-1.209,2.684-1.209c1.101,0,1.972,0.374,2.611,1.121
		c0.6,0.698,0.9,1.563,0.9,2.596c0,0.187-0.061,0.344-0.184,0.472c-0.123,0.128-0.288,0.192-0.494,0.192H68.377L68.377,315.851z
		 M70.545,312.606c-0.875,0-1.514,0.388-1.917,1.165c-0.148,0.275-0.231,0.605-0.251,0.988h4.351
		c-0.039-0.698-0.295-1.249-0.767-1.652C71.568,312.774,71.096,312.606,70.545,312.606L70.545,312.606z M75.988,308.978
		c0-0.197,0.064-0.359,0.192-0.487c0.128-0.128,0.288-0.192,0.479-0.192c0.192,0,0.352,0.064,0.479,0.192
		c0.128,0.128,0.192,0.29,0.192,0.487v9.572c0,0.187-0.064,0.344-0.192,0.472c-0.128,0.128-0.288,0.192-0.479,0.192
		c-0.192,0-0.352-0.064-0.479-0.192c-0.128-0.128-0.192-0.285-0.192-0.472V308.978L75.988,308.978z M86.018,318.167
		c0.098,0.128,0.147,0.275,0.147,0.442c0,0.167-0.064,0.31-0.192,0.428c-0.128,0.118-0.27,0.177-0.428,0.177
		c-0.236,0-0.438-0.093-0.605-0.28l-2.537-3.451l-1.283,1.165v1.903c0,0.187-0.066,0.344-0.199,0.472
		c-0.133,0.128-0.293,0.192-0.479,0.192c-0.187,0-0.344-0.064-0.472-0.192c-0.128-0.128-0.192-0.285-0.192-0.472v-9.572
		c0-0.187,0.064-0.347,0.192-0.479c0.128-0.133,0.285-0.199,0.472-0.199c0.187,0,0.347,0.066,0.479,0.199
		c0.133,0.133,0.199,0.293,0.199,0.479v6.033l3.51-3.245c0.157-0.128,0.334-0.192,0.531-0.192c0.197,0,0.339,0.071,0.428,0.214
		c0.088,0.143,0.133,0.263,0.133,0.361c0,0.216-0.084,0.408-0.251,0.575l-2.124,1.903L86.018,318.167L86.018,318.167z
		 M91.15,311.471c1.141,0,2.055,0.359,2.743,1.077c0.688,0.728,1.032,1.672,1.032,2.832c0,1.16-0.344,2.104-1.032,2.832
		c-0.688,0.718-1.603,1.077-2.743,1.077c-1.15,0-2.065-0.359-2.743-1.077c-0.688-0.718-1.032-1.662-1.032-2.832
		c0-1.17,0.344-2.114,1.032-2.832C89.086,311.83,90,311.471,91.15,311.471L91.15,311.471z M89.506,317.452
		c0.231,0.211,0.492,0.366,0.782,0.465c0.29,0.098,0.575,0.147,0.855,0.147c0.28,0,0.565-0.049,0.855-0.147
		c0.29-0.098,0.553-0.251,0.789-0.457c0.531-0.482,0.797-1.18,0.797-2.094c0-0.885-0.265-1.573-0.797-2.065
		c-0.442-0.403-0.988-0.605-1.637-0.605c-1.062,0-1.799,0.477-2.212,1.431c-0.148,0.344-0.221,0.76-0.221,1.246
		c0,0.487,0.074,0.902,0.221,1.246C89.086,316.962,89.275,317.24,89.506,317.452L89.506,317.452z M98.142,312.828
		c0.6-0.905,1.436-1.357,2.507-1.357c0.531,0,1.013,0.157,1.445,0.472c0.354,0.246,0.624,0.595,0.811,1.047
		c0.275-0.433,0.546-0.738,0.811-0.914c0.56-0.403,1.195-0.605,1.903-0.605c0.796,0,1.421,0.305,1.873,0.914
		c0.393,0.521,0.59,1.16,0.59,1.917v4.248c0,0.187-0.066,0.344-0.199,0.472c-0.133,0.128-0.293,0.192-0.479,0.192
		c-0.187,0-0.344-0.064-0.472-0.192c-0.128-0.128-0.192-0.285-0.192-0.472v-3.982c0-0.62-0.111-1.084-0.332-1.394
		c-0.221-0.31-0.612-0.465-1.173-0.465c-0.865,0-1.573,0.472-2.124,1.416v4.425c0,0.187-0.066,0.344-0.199,0.472
		c-0.133,0.128-0.293,0.192-0.479,0.192c-0.187,0-0.344-0.064-0.472-0.192c-0.128-0.128-0.192-0.285-0.192-0.472v-3.982
		c0-0.62-0.111-1.084-0.332-1.394c-0.221-0.31-0.612-0.465-1.173-0.465c-0.865,0-1.573,0.472-2.124,1.416v4.425
		c0,0.187-0.066,0.344-0.199,0.472c-0.133,0.128-0.293,0.192-0.479,0.192s-0.344-0.064-0.472-0.192
		c-0.128-0.128-0.192-0.285-0.192-0.472v-6.328c0-0.187,0.064-0.347,0.192-0.479c0.128-0.133,0.285-0.199,0.472-0.199
		s0.347,0.066,0.479,0.199c0.133,0.133,0.199,0.292,0.199,0.479V312.828L98.142,312.828z M115.118,308.772
		c0.187,0,0.347,0.066,0.479,0.199c0.133,0.133,0.199,0.293,0.199,0.479v9.1c0,0.187-0.066,0.344-0.199,0.472
		c-0.133,0.128-0.293,0.192-0.479,0.192c-0.187,0-0.344-0.064-0.472-0.192c-0.128-0.128-0.192-0.285-0.192-0.472v-9.1
		c0-0.187,0.064-0.347,0.192-0.479C114.774,308.838,114.932,308.772,115.118,308.772L115.118,308.772z M122.154,312.71
		c-0.865,0-1.672,0.472-2.419,1.416v4.425c0,0.187-0.066,0.344-0.199,0.472c-0.133,0.128-0.293,0.192-0.479,0.192
		c-0.187,0-0.344-0.064-0.472-0.192c-0.128-0.128-0.192-0.285-0.192-0.472v-6.328c0-0.197,0.064-0.359,0.192-0.487
		c0.128-0.128,0.285-0.192,0.472-0.192c0.187,0,0.347,0.064,0.479,0.192c0.133,0.128,0.199,0.29,0.199,0.487v0.605
		c0.393-0.413,0.733-0.703,1.018-0.87c0.56-0.324,1.094-0.487,1.6-0.487c0.506,0,0.922,0.076,1.246,0.229
		c0.324,0.152,0.6,0.361,0.826,0.627c0.462,0.541,0.693,1.219,0.693,2.035v4.189c0,0.187-0.066,0.344-0.199,0.472
		c-0.133,0.128-0.293,0.192-0.479,0.192c-0.187,0-0.344-0.064-0.472-0.192c-0.128-0.128-0.192-0.285-0.192-0.472v-4.041
		c0-0.56-0.125-1-0.376-1.32C123.15,312.869,122.734,312.71,122.154,312.71L122.154,312.71z M133.01,318.167
		c-0.728,0.747-1.568,1.121-2.522,1.121c-0.944,0-1.76-0.334-2.448-1.003c-0.747-0.738-1.121-1.706-1.121-2.906
		c0-1.18,0.374-2.144,1.121-2.891c0.678-0.678,1.495-1.018,2.448-1.018c0.954,0,1.795,0.374,2.522,1.121v-3.614
		c0-0.197,0.064-0.359,0.192-0.487c0.128-0.128,0.288-0.192,0.479-0.192c0.192,0,0.352,0.064,0.479,0.192
		c0.128,0.128,0.192,0.29,0.192,0.487v9.572c0,0.187-0.064,0.344-0.192,0.472c-0.128,0.128-0.288,0.192-0.479,0.192
		c-0.192,0-0.352-0.064-0.479-0.192c-0.128-0.128-0.192-0.285-0.192-0.472V318.167L133.01,318.167z M133.01,313.831
		c-0.669-0.738-1.445-1.106-2.33-1.106c-1.121,0-1.863,0.501-2.227,1.504c-0.128,0.334-0.192,0.718-0.192,1.15
		c0,0.846,0.231,1.509,0.693,1.991c0.423,0.442,0.998,0.664,1.726,0.664c0.885,0,1.662-0.369,2.33-1.106V313.831L133.01,313.831z
		 M140.001,311.471c1.141,0,2.055,0.359,2.743,1.077c0.688,0.728,1.032,1.672,1.032,2.832c0,1.16-0.344,2.104-1.032,2.832
		c-0.688,0.718-1.603,1.077-2.743,1.077c-1.15,0-2.065-0.359-2.743-1.077c-0.688-0.718-1.032-1.662-1.032-2.832
		c0-1.17,0.344-2.114,1.032-2.832C137.936,311.83,138.85,311.471,140.001,311.471L140.001,311.471z M138.356,317.452
		c0.231,0.211,0.492,0.366,0.782,0.465c0.29,0.098,0.575,0.147,0.855,0.147c0.28,0,0.565-0.049,0.855-0.147
		c0.29-0.098,0.553-0.251,0.789-0.457c0.531-0.482,0.797-1.18,0.797-2.094c0-0.885-0.265-1.573-0.797-2.065
		c-0.442-0.403-0.988-0.605-1.637-0.605c-1.062,0-1.799,0.477-2.212,1.431c-0.148,0.344-0.221,0.76-0.221,1.246
		c0,0.487,0.074,0.902,0.221,1.246C137.936,316.962,138.125,317.24,138.356,317.452L138.356,317.452z M149.411,312.71
		c-0.865,0-1.672,0.472-2.419,1.416v4.425c0,0.187-0.066,0.344-0.199,0.472c-0.133,0.128-0.293,0.192-0.479,0.192
		c-0.187,0-0.344-0.064-0.472-0.192c-0.128-0.128-0.192-0.285-0.192-0.472v-6.328c0-0.197,0.064-0.359,0.192-0.487
		c0.128-0.128,0.285-0.192,0.472-0.192c0.187,0,0.347,0.064,0.479,0.192c0.133,0.128,0.199,0.29,0.199,0.487v0.605
		c0.393-0.413,0.733-0.703,1.018-0.87c0.56-0.324,1.094-0.487,1.6-0.487c0.506,0,0.922,0.076,1.246,0.229
		c0.324,0.152,0.6,0.361,0.826,0.627c0.462,0.541,0.693,1.219,0.693,2.035v4.189c0,0.187-0.066,0.344-0.199,0.472
		c-0.133,0.128-0.293,0.192-0.479,0.192c-0.187,0-0.344-0.064-0.472-0.192c-0.128-0.128-0.192-0.285-0.192-0.472v-4.041
		c0-0.56-0.125-1-0.376-1.32C150.407,312.869,149.991,312.71,149.411,312.71L149.411,312.71z M155.547,315.851
		c0.079,0.669,0.329,1.2,0.752,1.593c0.423,0.393,1.013,0.59,1.77,0.59c0.757,0,1.391-0.128,1.903-0.383
		c0.177-0.088,0.329-0.133,0.457-0.133c0.128,0,0.251,0.054,0.369,0.162c0.118,0.108,0.177,0.231,0.177,0.369
		c0,0.256-0.106,0.44-0.317,0.553c-0.211,0.113-0.401,0.209-0.568,0.288c-0.167,0.079-0.349,0.147-0.546,0.206
		c-0.443,0.128-0.954,0.192-1.534,0.192c-1.209,0-2.149-0.339-2.817-1.018c-0.669-0.678-1.003-1.642-1.003-2.891
		c0-1.082,0.28-1.981,0.841-2.699c0.629-0.806,1.524-1.209,2.684-1.209c1.101,0,1.972,0.374,2.611,1.121
		c0.6,0.698,0.9,1.563,0.9,2.596c0,0.187-0.061,0.344-0.184,0.472c-0.123,0.128-0.288,0.192-0.494,0.192H155.547L155.547,315.851z
		 M157.715,312.606c-0.875,0-1.514,0.388-1.917,1.165c-0.148,0.275-0.231,0.605-0.251,0.988h4.351
		c-0.039-0.698-0.295-1.249-0.767-1.652C158.738,312.774,158.266,312.606,157.715,312.606L157.715,312.606z M165.429,318.049
		c1.091,0,1.637-0.349,1.637-1.047c0-0.216-0.108-0.381-0.324-0.494c-0.216-0.113-0.489-0.214-0.819-0.302
		c-0.329-0.088-0.686-0.179-1.069-0.273c-0.383-0.093-0.74-0.224-1.069-0.391c-0.329-0.167-0.602-0.386-0.819-0.656
		c-0.216-0.27-0.324-0.602-0.324-0.996c0-0.393,0.059-0.733,0.177-1.018c0.118-0.285,0.295-0.531,0.531-0.737
		c0.521-0.442,1.244-0.664,2.168-0.664c0.737,0,1.45,0.123,2.139,0.369c0.138,0.049,0.243,0.128,0.317,0.236
		c0.074,0.108,0.111,0.229,0.111,0.361c0,0.133-0.057,0.258-0.17,0.376c-0.113,0.118-0.224,0.177-0.332,0.177
		s-0.241-0.025-0.398-0.074c-0.472-0.147-0.988-0.221-1.549-0.221c-0.56,0-0.986,0.098-1.276,0.295
		c-0.29,0.197-0.435,0.433-0.435,0.708c0,0.275,0.111,0.479,0.332,0.612c0.221,0.133,0.494,0.243,0.819,0.332
		c0.324,0.089,0.681,0.177,1.069,0.266c0.388,0.089,0.745,0.211,1.069,0.369c0.767,0.393,1.15,1.003,1.15,1.829
		c0,0.629-0.236,1.141-0.708,1.534c-0.511,0.433-1.224,0.649-2.139,0.649c-0.993,0-1.888-0.221-2.684-0.664
		c-0.167-0.118-0.251-0.266-0.251-0.442c0-0.177,0.054-0.327,0.162-0.45c0.108-0.123,0.226-0.184,0.354-0.184
		c0.128,0,0.28,0.039,0.457,0.118C164.126,317.921,164.751,318.049,165.429,318.049L165.429,318.049z M170.178,312.223
		c0-0.197,0.064-0.359,0.192-0.487c0.128-0.128,0.288-0.192,0.479-0.192s0.352,0.064,0.479,0.192
		c0.128,0.128,0.192,0.29,0.192,0.487v6.328c0,0.187-0.064,0.344-0.192,0.472c-0.128,0.128-0.288,0.192-0.479,0.192
		s-0.352-0.064-0.479-0.192c-0.128-0.128-0.192-0.285-0.192-0.472V312.223L170.178,312.223z M171.653,309.332
		c0,0.207-0.074,0.383-0.221,0.531c-0.147,0.148-0.324,0.221-0.531,0.221h-0.089c-0.206,0-0.383-0.074-0.531-0.221
		c-0.148-0.147-0.221-0.324-0.221-0.531v-0.059c0-0.207,0.074-0.383,0.221-0.531c0.147-0.147,0.324-0.221,0.531-0.221h0.089
		c0.206,0,0.383,0.074,0.531,0.221c0.148,0.148,0.221,0.324,0.221,0.531V309.332L171.653,309.332z M174.19,312.002
		c0.826-0.354,1.681-0.531,2.566-0.531c1.003,0,1.78,0.305,2.33,0.914c0.492,0.531,0.738,1.195,0.738,1.991v4.174
		c0,0.187-0.066,0.344-0.199,0.472c-0.133,0.128-0.292,0.192-0.479,0.192c-0.187,0-0.344-0.064-0.472-0.192
		c-0.128-0.128-0.192-0.285-0.192-0.472v-0.383c-0.266,0.275-0.622,0.531-1.069,0.767c-0.447,0.236-1.015,0.354-1.704,0.354
		c-0.678,0-1.244-0.197-1.696-0.59c-0.472-0.413-0.708-0.954-0.708-1.622c0-0.728,0.275-1.298,0.826-1.711
		c0.6-0.452,1.455-0.678,2.566-0.678h1.785v-0.118c0-0.659-0.162-1.128-0.487-1.409c-0.324-0.28-0.821-0.42-1.49-0.42
		c-0.57,0-1.224,0.118-1.962,0.354c-0.079,0.02-0.167,0.029-0.266,0.029c-0.098,0-0.202-0.052-0.31-0.155
		c-0.108-0.103-0.162-0.263-0.162-0.479C173.807,312.272,173.935,312.11,174.19,312.002L174.19,312.002z M174.647,316.928
		c0,0.787,0.521,1.18,1.563,1.18c0.462,0,0.892-0.113,1.291-0.339c0.398-0.226,0.725-0.482,0.981-0.767v-1.239h-1.608
		c-0.698,0-1.244,0.088-1.637,0.265C174.844,316.205,174.647,316.505,174.647,316.928z"/>
	<g>
		<path style="fill-rule:evenodd;clip-rule:evenodd;fill:#635F5E;" d="M46.141,248.104v32.347c0,0.95-0.347,1.782-1.032,2.441
			c-0.677,0.652-1.509,0.981-2.448,0.981c-0.937,0-1.767-0.328-2.43-0.992c-0.664-0.664-0.992-1.493-0.992-2.43v-32.347H28.249
			c-0.889,0-1.683-0.302-2.315-0.934c-0.632-0.632-0.934-1.426-0.934-2.315c0-0.892,0.304-1.687,0.922-2.332
			c0.627-0.653,1.423-0.975,2.326-0.975h28.823c0.905,0,1.703,0.323,2.344,0.963c0.64,0.64,0.963,1.439,0.963,2.344
			c0,0.903-0.322,1.7-0.975,2.326c-0.644,0.618-1.44,0.922-2.332,0.922H46.141L46.141,248.104z M69.485,270.677
			c0.356,1.847,1.139,3.517,2.556,4.834c1.734,1.613,4.086,2.096,6.388,2.096c2.398,0,4.933-0.335,7.101-1.418
			c0.659-0.329,1.415-0.607,2.16-0.607c0.77,0,1.44,0.339,2,0.852c0.595,0.545,0.96,1.235,0.96,2.05
			c0,1.268-0.549,2.289-1.676,2.892c-0.746,0.399-1.5,0.787-2.266,1.147c-0.73,0.344-1.486,0.629-2.26,0.855
			c-2.012,0.588-4.159,0.785-6.249,0.785c-4.333,0-8.524-1.079-11.637-4.237c-3.154-3.2-4.171-7.544-4.171-11.918
			c0-4.031,0.964-7.882,3.472-11.095c2.795-3.58,6.693-5.061,11.179-5.061c4.293,0,8.046,1.395,10.865,4.684
			c2.617,3.054,3.727,6.72,3.727,10.719c0,0.924-0.31,1.751-0.952,2.419c-0.677,0.704-1.561,1.003-2.528,1.003H69.485
			L69.485,270.677z M97.579,242.888c0-0.954,0.314-1.811,0.992-2.488c0.671-0.671,1.515-0.992,2.459-0.992
			c0.945,0,1.788,0.32,2.459,0.992c0.678,0.677,0.992,1.534,0.992,2.488v37.563c0,0.937-0.328,1.767-0.992,2.43
			c-0.672,0.671-1.515,0.992-2.459,0.992c-0.945,0-1.788-0.32-2.459-0.992c-0.664-0.664-0.992-1.493-0.992-2.43V242.888
			L97.579,242.888z M123.453,269.627l-4.096,3.719v7.104c0,0.95-0.347,1.782-1.032,2.441c-0.677,0.652-1.509,0.981-2.448,0.981
			c-0.937,0-1.767-0.328-2.43-0.992c-0.664-0.664-0.992-1.493-0.992-2.43v-37.563c0-0.939,0.329-1.771,0.981-2.448
			c0.659-0.685,1.491-1.032,2.441-1.032c0.952,0,1.786,0.348,2.459,1.021c0.673,0.673,1.021,1.507,1.021,2.459v21.803l12.421-11.482
			l0.02-0.016c0.753-0.612,1.628-0.935,2.599-0.935c0.986,0,1.844,0.374,2.373,1.226c0.338,0.545,0.644,1.195,0.644,1.849
			c0,1.106-0.445,2.057-1.223,2.836l-0.016,0.016l-7.791,6.98l10.019,13.285c0.503,0.654,0.748,1.411,0.748,2.235
			c0,0.898-0.357,1.671-1.016,2.279c-0.626,0.578-1.377,0.911-2.233,0.911c-1.189,0-2.193-0.489-2.982-1.372l-0.026-0.029
			L123.453,269.627L123.453,269.627z M157.896,251.852c4.36,0,8.315,1.284,11.358,4.479c3.066,3.219,4.277,7.282,4.277,11.677
			c0,4.395-1.211,8.458-4.277,11.677c-3.042,3.195-6.997,4.479-11.358,4.479c-4.364,0-8.314-1.282-11.358-4.479
			c-3.067-3.221-4.277-7.279-4.277-11.677s1.21-8.455,4.277-11.677C149.583,253.133,153.532,251.852,157.896,251.852
			L157.896,251.852z M186.148,255.633c2.337-2.499,5.353-3.782,9.022-3.782c2.261,0,4.317,0.675,6.146,2.003
			c1.199,0.834,2.126,1.91,2.828,3.15c0.738-1.005,1.608-1.971,2.599-2.635c2.363-1.696,5.024-2.519,7.932-2.519
			c3.303,0,6.021,1.263,8.005,3.916c1.758,2.351,2.478,5.1,2.478,8.014v16.669c0,0.95-0.347,1.782-1.032,2.441
			c-0.677,0.652-1.509,0.981-2.448,0.981c-0.937,0-1.767-0.328-2.43-0.992c-0.664-0.664-0.992-1.493-0.992-2.43v-15.627
			c0-1.596-0.192-3.653-1.15-4.994c-0.876-1.226-2.534-1.481-3.936-1.481c-3.46,0-5.819,2.131-7.517,4.962v17.14
			c0,0.95-0.347,1.782-1.032,2.441c-0.677,0.652-1.509,0.981-2.448,0.981c-0.937,0-1.767-0.328-2.43-0.992
			c-0.664-0.664-0.992-1.493-0.992-2.43v-15.627c0-1.596-0.192-3.653-1.15-4.994c-0.876-1.226-2.534-1.481-3.936-1.481
			c-3.46,0-5.819,2.131-7.517,4.962v17.14c0,0.95-0.347,1.782-1.032,2.441c-0.677,0.652-1.509,0.981-2.448,0.981
			c-0.937,0-1.767-0.328-2.43-0.992c-0.664-0.664-0.992-1.493-0.992-2.43v-24.83c0-0.939,0.329-1.771,0.981-2.448
			c0.659-0.685,1.491-1.032,2.441-1.032c0.952,0,1.786,0.348,2.459,1.021c0.673,0.673,1.021,1.507,1.021,2.459V255.633
			L186.148,255.633z M69.426,264.758h15.282c-0.265-1.974-1.069-3.702-2.642-5.042c-1.444-1.231-3.134-1.772-5.026-1.772
			c-3.131,0-5.35,1.363-6.8,4.134C69.802,262.915,69.549,263.827,69.426,264.758L69.426,264.758z M151.995,275.536
			c0.812,0.743,1.736,1.299,2.778,1.652c1,0.339,2.037,0.536,3.094,0.536s2.095-0.197,3.094-0.536
			c1.048-0.355,1.988-0.906,2.81-1.625c2.175-1.974,2.857-4.762,2.857-7.613c0-2.833-0.717-5.53-2.861-7.501
			c-1.65-1.517-3.643-2.157-5.871-2.157c-3.786,0-6.423,1.629-7.931,5.121c-0.612,1.417-0.801,3.035-0.801,4.566
			c0,1.535,0.193,3.148,0.802,4.569C150.444,273.661,151.095,274.712,151.995,275.536z"/>
	</g>
	<path style="fill-rule:evenodd;clip-rule:evenodd;fill:#635F5E;" d="M57.072,242.367c0.695,0,1.283,0.241,1.765,0.723
		s0.723,1.071,0.723,1.765c0,0.695-0.241,1.273-0.723,1.736c-0.482,0.463-1.071,0.695-1.765,0.695H45.323v33.164
		c0,0.733-0.26,1.35-0.781,1.852c-0.521,0.502-1.148,0.752-1.881,0.752c-0.733,0-1.351-0.251-1.852-0.752
		c-0.502-0.502-0.752-1.119-0.752-1.852v-33.164H28.249c-0.695,0-1.273-0.232-1.736-0.695c-0.463-0.463-0.695-1.042-0.695-1.736
		c0-0.695,0.231-1.283,0.695-1.765c0.463-0.482,1.042-0.723,1.736-0.723H57.072L57.072,242.367z M68.532,269.859
		c0.309,2.624,1.293,4.707,2.952,6.251c1.659,1.543,3.974,2.315,6.945,2.315c2.971,0,5.46-0.502,7.466-1.505
		c0.695-0.347,1.293-0.521,1.794-0.521c0.502,0,0.984,0.212,1.447,0.637c0.463,0.424,0.694,0.907,0.694,1.447
		c0,1.003-0.415,1.727-1.244,2.17c-0.83,0.444-1.572,0.82-2.228,1.129c-0.656,0.309-1.37,0.579-2.141,0.81
		c-1.736,0.502-3.743,0.752-6.019,0.752c-4.746,0-8.431-1.331-11.055-3.994c-2.624-2.662-3.936-6.444-3.936-11.344
		c0-4.244,1.1-7.775,3.299-10.592c2.47-3.164,5.981-4.746,10.534-4.746c4.322,0,7.736,1.466,10.244,4.399
		c2.354,2.74,3.531,6.135,3.531,10.187c0,0.733-0.241,1.35-0.723,1.852s-1.129,0.752-1.939,0.752H68.532L68.532,269.859z
		 M77.04,257.126c-3.434,0-5.942,1.524-7.524,4.572c-0.579,1.08-0.907,2.373-0.984,3.878h17.074c-0.154-2.74-1.158-4.9-3.01-6.482
		C81.053,257.782,79.201,257.126,77.04,257.126L77.04,257.126z M98.397,242.888c0-0.772,0.251-1.408,0.752-1.91
		c0.502-0.502,1.129-0.752,1.881-0.752c0.752,0,1.379,0.251,1.881,0.752c0.502,0.502,0.752,1.138,0.752,1.91v37.563
		c0,0.733-0.251,1.35-0.752,1.852c-0.502,0.502-1.129,0.752-1.881,0.752c-0.752,0-1.379-0.251-1.881-0.752
		c-0.502-0.502-0.752-1.119-0.752-1.852V242.888L98.397,242.888z M137.754,278.946c0.386,0.502,0.579,1.08,0.579,1.736
		c0,0.656-0.251,1.215-0.752,1.678c-0.502,0.463-1.061,0.694-1.678,0.694c-0.926,0-1.717-0.367-2.373-1.1l-9.955-13.544
		l-5.035,4.572v7.466c0,0.733-0.26,1.35-0.781,1.852c-0.521,0.502-1.148,0.752-1.881,0.752c-0.733,0-1.351-0.251-1.852-0.752
		c-0.502-0.502-0.752-1.119-0.752-1.852v-37.563c0-0.733,0.251-1.36,0.752-1.881c0.502-0.521,1.119-0.781,1.852-0.781
		c0.733,0,1.36,0.26,1.881,0.781c0.521,0.521,0.781,1.148,0.781,1.881v23.672l13.775-12.733c0.617-0.502,1.312-0.752,2.084-0.752
		c0.772,0,1.331,0.28,1.678,0.839c0.347,0.559,0.521,1.032,0.521,1.418c0,0.849-0.328,1.601-0.984,2.257l-8.334,7.466
		L137.754,278.946L137.754,278.946z M157.896,252.669c4.476,0,8.064,1.408,10.765,4.225c2.701,2.855,4.052,6.56,4.052,11.113
		c0,4.553-1.351,8.257-4.052,11.113c-2.701,2.817-6.289,4.225-10.765,4.225c-4.514,0-8.103-1.408-10.765-4.225
		c-2.701-2.817-4.052-6.521-4.052-11.113s1.351-8.296,4.052-11.113C149.793,254.078,153.382,252.669,157.896,252.669
		L157.896,252.669z M151.443,276.139c0.907,0.83,1.929,1.437,3.068,1.823c1.138,0.386,2.257,0.579,3.357,0.579
		c1.1,0,2.219-0.193,3.357-0.579c1.138-0.386,2.17-0.984,3.097-1.794c2.084-1.891,3.125-4.63,3.125-8.219
		c0-3.473-1.042-6.174-3.125-8.103c-1.736-1.582-3.878-2.373-6.425-2.373c-4.167,0-7.061,1.871-8.682,5.614
		c-0.579,1.351-0.868,2.981-0.868,4.891c0,1.91,0.289,3.54,0.868,4.891C149.793,274.219,150.536,275.309,151.443,276.139
		L151.443,276.139z M185.33,257.994c2.354-3.55,5.633-5.325,9.839-5.325c2.084,0,3.974,0.617,5.672,1.852
		c1.389,0.965,2.45,2.334,3.183,4.109c1.08-1.698,2.142-2.894,3.183-3.588c2.199-1.582,4.688-2.373,7.466-2.373
		c3.125,0,5.576,1.196,7.351,3.588c1.543,2.045,2.315,4.553,2.315,7.524v16.669c0,0.733-0.26,1.35-0.781,1.852
		c-0.521,0.502-1.148,0.752-1.881,0.752c-0.733,0-1.351-0.251-1.852-0.752c-0.502-0.502-0.752-1.119-0.752-1.852v-15.627
		c0-2.431-0.434-4.254-1.302-5.469c-0.868-1.215-2.402-1.823-4.601-1.823c-3.396,0-6.174,1.852-8.334,5.556v17.364
		c0,0.733-0.26,1.35-0.781,1.852c-0.521,0.502-1.148,0.752-1.881,0.752c-0.733,0-1.35-0.251-1.852-0.752
		c-0.502-0.502-0.752-1.119-0.752-1.852v-15.627c0-2.431-0.434-4.254-1.302-5.469c-0.868-1.215-2.402-1.823-4.601-1.823
		c-3.396,0-6.174,1.852-8.334,5.556v17.364c0,0.733-0.26,1.35-0.781,1.852c-0.521,0.502-1.148,0.752-1.881,0.752
		c-0.733,0-1.35-0.251-1.852-0.752c-0.502-0.502-0.752-1.119-0.752-1.852v-24.83c0-0.733,0.251-1.36,0.752-1.881
		c0.502-0.521,1.119-0.781,1.852-0.781c0.733,0,1.36,0.26,1.881,0.781s0.781,1.148,0.781,1.881V257.994z"/>
	<g>
		<path style="fill-rule:evenodd;clip-rule:evenodd;fill:#D11317;" d="M258.175,273.224h-18.588l-3.556,8.533
			c-0.548,1.279-1.522,2.116-2.951,2.116c-1.025,0-2.079-0.234-2.8-1.016c-0.537-0.581-0.911-1.281-0.911-2.088
			c0-0.619,0.112-1.224,0.354-1.795l14.763-34.853c0.778-1.772,2.132-2.862,4.106-2.862h0.579c1.973,0,3.328,1.09,4.106,2.862
			l14.763,34.853c0.242,0.571,0.354,1.176,0.354,1.795c0,0.807-0.375,1.507-0.911,2.088c-0.721,0.782-1.775,1.016-2.8,1.016
			c-1.429,0-2.403-0.837-2.951-2.116L258.175,273.224L258.175,273.224z M283.776,269.627l-4.096,3.719v7.104
			c0,0.95-0.347,1.782-1.032,2.441c-0.677,0.652-1.509,0.981-2.448,0.981c-0.937,0-1.767-0.328-2.43-0.992
			c-0.664-0.664-0.992-1.493-0.992-2.43v-37.563c0-0.939,0.329-1.771,0.981-2.448c0.659-0.685,1.491-1.032,2.441-1.032
			c0.952,0,1.786,0.348,2.459,1.021c0.673,0.673,1.021,1.507,1.021,2.459v21.803l12.421-11.482l0.02-0.016
			c0.753-0.612,1.628-0.935,2.599-0.935c0.986,0,1.844,0.374,2.373,1.226c0.338,0.545,0.644,1.195,0.644,1.849
			c0,1.106-0.445,2.057-1.223,2.836l-0.016,0.016l-7.791,6.98l10.019,13.285c0.503,0.654,0.748,1.411,0.748,2.235
			c0,0.898-0.357,1.671-1.016,2.279c-0.626,0.578-1.377,0.911-2.233,0.911c-1.189,0-2.193-0.489-2.982-1.372l-0.026-0.029
			L283.776,269.627L283.776,269.627z M314.573,277.665c1.586,0,4.23-0.185,5.194-1.692c0.307-0.479,0.413-1.037,0.413-1.599
			c0-0.596-0.32-0.946-0.834-1.214c-0.946-0.494-2.017-0.845-3.046-1.121c-1.388-0.373-2.781-0.726-4.178-1.066
			c-1.513-0.369-2.983-0.894-4.373-1.599c-1.351-0.686-2.533-1.609-3.481-2.794c-1.021-1.277-1.453-2.793-1.453-4.418
			c0-1.459,0.196-2.951,0.757-4.306c0.515-1.245,1.282-2.324,2.307-3.202c2.507-2.148,5.822-2.801,9.04-2.801
			c2.97,0,5.871,0.496,8.667,1.495c0.672,0.24,1.242,0.644,1.645,1.236c0.384,0.563,0.576,1.197,0.576,1.879
			c0,0.793-0.352,1.477-0.893,2.042c-0.504,0.526-1.139,0.946-1.893,0.946c-0.603,0-1.233-0.147-1.807-0.327
			c-1.887-0.59-3.861-0.831-5.833-0.831c-1.458,0-3.305,0.174-4.548,1.017c-0.741,0.502-1.349,1.163-1.349,2.101
			c0,0.751,0.254,1.31,0.905,1.701c0.92,0.552,1.975,0.933,3.007,1.214c1.379,0.376,2.769,0.716,4.163,1.034
			c1.507,0.343,2.98,0.834,4.371,1.508l0.016,0.008c3.208,1.645,4.959,4.276,4.959,7.905c0,2.681-1.016,4.92-3.07,6.646
			c-2.49,2.091-5.744,2.738-8.918,2.738c-3.856,0-7.552-0.83-10.931-2.707l-0.038-0.021l-0.036-0.025
			c-0.821-0.579-1.33-1.386-1.33-2.404c0-0.865,0.267-1.654,0.841-2.306c0.524-0.595,1.194-1.001,2.003-1.001
			c0.727,0,1.47,0.24,2.128,0.534C309.779,277.226,312.143,277.665,314.573,277.665L314.573,277.665z M337.52,270.677
			c0.356,1.847,1.139,3.517,2.556,4.834c1.734,1.613,4.086,2.096,6.388,2.096c2.398,0,4.933-0.335,7.101-1.418
			c0.659-0.329,1.415-0.607,2.16-0.607c0.77,0,1.44,0.339,2,0.852c0.595,0.545,0.96,1.235,0.96,2.05
			c0,1.268-0.549,2.289-1.676,2.892c-0.746,0.399-1.5,0.787-2.266,1.147c-0.73,0.344-1.486,0.629-2.26,0.855
			c-2.012,0.588-4.159,0.785-6.249,0.785c-4.333,0-8.524-1.079-11.637-4.237c-3.154-3.2-4.171-7.544-4.171-11.918
			c0-4.031,0.964-7.882,3.472-11.095c2.795-3.58,6.693-5.061,11.178-5.061c4.293,0,8.046,1.395,10.865,4.684
			c2.617,3.054,3.727,6.72,3.727,10.719c0,0.924-0.31,1.751-0.952,2.419c-0.677,0.704-1.561,1.003-2.528,1.003H337.52
			L337.52,270.677z M375.345,277.665c1.586,0,4.23-0.185,5.194-1.692c0.307-0.479,0.413-1.037,0.413-1.599
			c0-0.596-0.32-0.946-0.834-1.214c-0.946-0.494-2.017-0.845-3.046-1.121c-1.388-0.373-2.781-0.726-4.178-1.066
			c-1.513-0.369-2.983-0.894-4.373-1.599c-1.351-0.686-2.533-1.609-3.481-2.794c-1.021-1.277-1.453-2.793-1.453-4.418
			c0-1.459,0.196-2.951,0.757-4.306c0.515-1.245,1.282-2.324,2.307-3.202c2.507-2.148,5.822-2.801,9.04-2.801
			c2.97,0,5.871,0.496,8.667,1.495c0.672,0.24,1.242,0.644,1.645,1.236c0.384,0.563,0.576,1.197,0.576,1.879
			c0,0.793-0.352,1.477-0.893,2.042c-0.504,0.526-1.139,0.946-1.893,0.946c-0.603,0-1.233-0.147-1.807-0.327
			c-1.887-0.59-3.861-0.831-5.833-0.831c-1.458,0-3.305,0.174-4.548,1.017c-0.741,0.502-1.349,1.163-1.349,2.101
			c0,0.751,0.254,1.31,0.905,1.701c0.92,0.552,1.975,0.933,3.007,1.214c1.379,0.376,2.769,0.716,4.163,1.034
			c1.507,0.343,2.98,0.834,4.371,1.508l0.016,0.008c3.208,1.645,4.959,4.276,4.959,7.905c0,2.681-1.016,4.92-3.07,6.646
			c-2.49,2.091-5.744,2.738-8.918,2.738c-3.856,0-7.552-0.83-10.931-2.707l-0.038-0.021l-0.036-0.025
			c-0.821-0.579-1.33-1.386-1.33-2.404c0-0.865,0.267-1.654,0.84-2.306c0.524-0.595,1.194-1.001,2.003-1.001
			c0.727,0,1.47,0.24,2.128,0.534C370.551,277.226,372.916,277.665,375.345,277.665L375.345,277.665z M255.469,266.784
			l-6.588-15.861l-6.588,15.861H255.469L255.469,266.784z M337.461,264.758h15.282c-0.265-1.974-1.069-3.702-2.642-5.042
			c-1.444-1.231-3.134-1.772-5.026-1.772c-3.131,0-5.35,1.363-6.8,4.134C337.837,262.915,337.584,263.827,337.461,264.758z"/>
	</g>
	<path style="fill-rule:evenodd;clip-rule:evenodd;fill:#D11317;" d="M267.286,279.293c0.193,0.463,0.289,0.955,0.289,1.476
		c0,0.521-0.232,1.032-0.695,1.534c-0.463,0.502-1.196,0.752-2.199,0.752c-1.003,0-1.736-0.54-2.199-1.621l-3.762-9.029h-19.679
		l-3.762,9.029c-0.463,1.08-1.196,1.621-2.199,1.621c-1.003,0-1.736-0.251-2.199-0.752c-0.463-0.502-0.695-1.013-0.695-1.534
		c0-0.521,0.096-1.013,0.289-1.476l14.759-34.843c0.695-1.582,1.814-2.373,3.357-2.373h0.579c1.543,0,2.662,0.791,3.357,2.373
		L267.286,279.293L267.286,279.293z M256.694,267.602l-7.814-18.811l-7.814,18.811H256.694L256.694,267.602z M298.078,278.946
		c0.386,0.502,0.579,1.08,0.579,1.736c0,0.656-0.251,1.215-0.752,1.678c-0.502,0.463-1.061,0.694-1.678,0.694
		c-0.926,0-1.717-0.367-2.373-1.1l-9.955-13.544l-5.035,4.572v7.466c0,0.733-0.26,1.35-0.781,1.852
		c-0.521,0.502-1.148,0.752-1.881,0.752c-0.733,0-1.351-0.251-1.852-0.752c-0.502-0.502-0.752-1.119-0.752-1.852v-37.563
		c0-0.733,0.251-1.36,0.752-1.881c0.502-0.521,1.119-0.781,1.852-0.781c0.733,0,1.36,0.26,1.881,0.781
		c0.521,0.521,0.781,1.148,0.781,1.881v23.672l13.775-12.733c0.617-0.502,1.312-0.752,2.084-0.752c0.772,0,1.331,0.28,1.678,0.839
		c0.347,0.559,0.521,1.032,0.521,1.418c0,0.849-0.328,1.601-0.984,2.257l-8.334,7.466L298.078,278.946L298.078,278.946z
		 M314.573,278.483c4.283,0,6.425-1.37,6.425-4.109c0-0.849-0.424-1.495-1.273-1.939s-1.92-0.839-3.212-1.186
		c-1.293-0.347-2.691-0.704-4.196-1.071c-1.505-0.367-2.904-0.878-4.196-1.534c-1.293-0.656-2.363-1.514-3.212-2.576
		c-0.849-1.061-1.273-2.363-1.273-3.907c0-1.543,0.232-2.875,0.695-3.994s1.158-2.084,2.084-2.894
		c2.045-1.736,4.881-2.604,8.508-2.604c2.894,0,5.691,0.482,8.392,1.447c0.54,0.193,0.955,0.502,1.244,0.926
		c0.289,0.424,0.434,0.897,0.434,1.418c0,0.521-0.222,1.013-0.666,1.476c-0.444,0.463-0.878,0.695-1.302,0.695
		c-0.424,0-0.945-0.096-1.563-0.289c-1.852-0.579-3.878-0.868-6.077-0.868s-3.868,0.386-5.006,1.158
		c-1.138,0.772-1.707,1.698-1.707,2.778c0,1.08,0.434,1.881,1.302,2.402c0.868,0.521,1.939,0.955,3.212,1.302
		c1.273,0.347,2.672,0.695,4.196,1.042c1.524,0.347,2.923,0.83,4.196,1.447c3.01,1.543,4.514,3.936,4.514,7.177
		c0,2.47-0.926,4.476-2.778,6.019c-2.006,1.698-4.804,2.547-8.392,2.547c-3.897,0-7.408-0.868-10.534-2.604
		c-0.656-0.463-0.984-1.042-0.984-1.736c0-0.695,0.212-1.283,0.637-1.765c0.424-0.482,0.888-0.724,1.389-0.724
		s1.1,0.154,1.794,0.463C309.46,277.982,311.91,278.483,314.573,278.483L314.573,278.483z M336.567,269.859
		c0.309,2.624,1.293,4.707,2.952,6.251c1.659,1.543,3.974,2.315,6.945,2.315c2.971,0,5.46-0.502,7.466-1.505
		c0.695-0.347,1.293-0.521,1.794-0.521c0.502,0,0.984,0.212,1.447,0.637c0.463,0.424,0.694,0.907,0.694,1.447
		c0,1.003-0.415,1.727-1.244,2.17c-0.83,0.444-1.572,0.82-2.228,1.129c-0.656,0.309-1.37,0.579-2.141,0.81
		c-1.736,0.502-3.743,0.752-6.019,0.752c-4.746,0-8.431-1.331-11.055-3.994c-2.624-2.662-3.936-6.444-3.936-11.344
		c0-4.244,1.1-7.775,3.299-10.592c2.469-3.164,5.981-4.746,10.534-4.746c4.322,0,7.736,1.466,10.244,4.399
		c2.354,2.74,3.531,6.135,3.531,10.187c0,0.733-0.241,1.35-0.723,1.852s-1.129,0.752-1.939,0.752H336.567L336.567,269.859z
		 M345.075,257.126c-3.434,0-5.942,1.524-7.524,4.572c-0.579,1.08-0.907,2.373-0.984,3.878h17.074c-0.154-2.74-1.158-4.9-3.01-6.482
		C349.088,257.782,347.236,257.126,345.075,257.126L345.075,257.126z M375.345,278.483c4.283,0,6.425-1.37,6.425-4.109
		c0-0.849-0.424-1.495-1.273-1.939s-1.92-0.839-3.212-1.186c-1.293-0.347-2.691-0.704-4.196-1.071
		c-1.505-0.367-2.904-0.878-4.196-1.534c-1.293-0.656-2.363-1.514-3.212-2.576c-0.849-1.061-1.273-2.363-1.273-3.907
		c0-1.543,0.232-2.875,0.695-3.994s1.158-2.084,2.084-2.894c2.045-1.736,4.881-2.604,8.508-2.604c2.894,0,5.691,0.482,8.392,1.447
		c0.54,0.193,0.955,0.502,1.244,0.926c0.289,0.424,0.434,0.897,0.434,1.418c0,0.521-0.222,1.013-0.666,1.476
		c-0.444,0.463-0.878,0.695-1.302,0.695c-0.424,0-0.945-0.096-1.563-0.289c-1.852-0.579-3.878-0.868-6.077-0.868
		s-3.868,0.386-5.006,1.158c-1.138,0.772-1.707,1.698-1.707,2.778c0,1.08,0.434,1.881,1.302,2.402
		c0.868,0.521,1.939,0.955,3.212,1.302c1.273,0.347,2.672,0.695,4.196,1.042c1.524,0.347,2.923,0.83,4.196,1.447
		c3.01,1.543,4.514,3.936,4.514,7.177c0,2.47-0.926,4.476-2.778,6.019c-2.006,1.698-4.804,2.547-8.392,2.547
		c-3.897,0-7.408-0.868-10.534-2.604c-0.656-0.463-0.984-1.042-0.984-1.736c0-0.695,0.212-1.283,0.637-1.765
		c0.424-0.482,0.887-0.724,1.389-0.724c0.502,0,1.1,0.154,1.794,0.463C370.233,277.982,372.683,278.483,375.345,278.483z"/>
</g>
</svg>
